ETBookOT-Bold.ufo
<glyph name="exclam" format="1">
  <advance width="272"/>
  <unicode hex="0021"/>
  <outline>
    <contour>
      <point x="160" y="185" type="line"/>
      <point x="153" y="172"/>
      <point x="126" y="159"/>
      <point x="114" y="185" type="curve"/>
      <point x="80" y="637" type="line" smooth="yes"/>
      <point x="78" y="663"/>
      <point x="79" y="690"/>
      <point x="118" y="690" type="curve" smooth="yes"/>
      <point x="154" y="690" type="line" smooth="yes"/>
      <point x="200" y="690"/>
      <point x="197" y="671"/>
      <point x="194" y="637" type="curve" smooth="yes"/>
    </contour>
    <contour>
      <point x="137" y="-9" type="curve" smooth="yes"/>
      <point x="106" y="-9"/>
      <point x="81" y="14"/>
      <point x="81" y="47" type="curve" smooth="yes"/>
      <point x="81" y="80"/>
      <point x="106" y="102"/>
      <point x="137" y="102" type="curve" smooth="yes"/>
      <point x="167" y="102"/>
      <point x="194" y="80"/>
      <point x="194" y="47" type="curve" smooth="yes"/>
      <point x="194" y="14"/>
      <point x="168" y="-9"/>
    </contour>
  </outline>
</glyph>
<glyph name="quotedbl" format="1">
  <advance width="425"/>
  <unicode hex="0022"/>
  <outline>
    <contour>
      <point x="355" y="518" type="curve" smooth="yes"/>
      <point x="327" y="374" type="line"/>
      <point x="317" y="345"/>
      <point x="279" y="361"/>
      <point x="276" y="375" type="curve" smooth="yes"/>
      <point x="251" y="517" type="line" smooth="yes"/>
      <point x="247" y="543"/>
      <point x="238" y="568"/>
      <point x="238" y="595" type="curve" smooth="yes"/>
      <point x="238" y="643"/>
      <point x="256" y="674"/>
      <point x="303" y="674" type="curve" smooth="yes"/>
      <point x="343" y="674"/>
      <point x="366" y="645"/>
      <point x="366" y="605" type="curve" smooth="yes"/>
      <point x="366" y="579"/>
      <point x="360" y="543"/>
    </contour>
    <contour>
      <point x="184" y="562" type="curve" smooth="yes"/>
      <point x="182" y="547"/>
      <point x="179" y="533"/>
      <point x="176" y="519" type="curve" smooth="yes"/>
      <point x="149" y="373" type="line"/>
      <point x="134" y="351"/>
      <point x="102" y="361"/>
      <point x="98" y="386" type="curve" smooth="yes"/>
      <point x="74" y="520" type="line" smooth="yes"/>
      <point x="69" y="547"/>
      <point x="63" y="573"/>
      <point x="63" y="600" type="curve" smooth="yes"/>
      <point x="63" y="644"/>
      <point x="80" y="674"/>
      <point x="123" y="674" type="curve" smooth="yes"/>
      <point x="164" y="674"/>
      <point x="188" y="645"/>
      <point x="188" y="605" type="curve" smooth="yes"/>
      <point x="188" y="590"/>
      <point x="186" y="576"/>
    </contour>
  </outline>
</glyph>
<glyph name="zero" format="1">
  <advance width="489"/>
  <unicode hex="0030"/>
  <outline>
    <contour>
      <point x="249" y="-14" type="curve" smooth="yes"/>
      <point x="125" y="-14"/>
      <point x="33" y="84"/>
      <point x="33" y="215" type="curve" smooth="yes"/>
      <point x="33" y="353"/>
      <point x="123" y="455"/>
      <point x="250" y="455" type="curve" smooth="yes"/>
      <point x="379" y="455"/>
      <point x="468" y="355"/>
      <point x="468" y="218" type="curve" smooth="yes"/>
      <point x="468" y="83"/>
      <point x="378" y="-14"/>
    </contour>
    <contour>
      <point x="248" y="389" type="curve" smooth="yes"/>
      <point x="176" y="389"/>
      <point x="125" y="329"/>
      <point x="125" y="221" type="curve" smooth="yes"/>
      <point x="125" y="112"/>
      <point x="174" y="54"/>
      <point x="249" y="54" type="curve" smooth="yes"/>
      <point x="327" y="54"/>
      <point x="377" y="111"/>
      <point x="377" y="220" type="curve" smooth="yes"/>
      <point x="377" y="332"/>
      <point x="328" y="389"/>
    </contour>
  </outline>
</glyph>
<glyph name="five" format="1">
  <advance width="445"/>
  <unicode hex="0035"/>
  <outline>
    <contour>
      <point x="346" y="358" type="curve" smooth="yes"/>
      <point x="338" y="350"/>
      <point x="332" y="348"/>
      <point x="321" y="348" type="curve" smooth="yes"/>
      <point x="230" y="360" type="line" smooth="yes"/>
      <point x="225" y="361"/>
      <point x="225" y="361"/>
      <point x="222" y="357" type="curve" smooth="yes"/>
      <point x="207" y="339"/>
      <point x="193" y="321"/>
      <point x="178" y="304" type="curve" smooth="yes"/>
      <point x="175" y="300"/>
      <point x="178" y="302"/>
      <point x="182" y="300" type="curve" smooth="yes"/>
      <point x="222" y="275"/>
      <point x="241" y="259"/>
      <point x="275" y="228" type="curve" smooth="yes"/>
      <point x="332" y="173"/>
      <point x="371" y="106"/>
      <point x="371" y="43" type="curve" smooth="yes"/>
      <point x="371" y="-26"/>
      <point x="329" y="-88"/>
      <point x="264" y="-130" type="curve" smooth="yes"/>
      <point x="216" y="-161"/>
      <point x="159" y="-177"/>
      <point x="107" y="-177" type="curve" smooth="yes"/>
      <point x="74" y="-177"/>
      <point x="46" y="-160"/>
      <point x="46" y="-127" type="curve" smooth="yes"/>
      <point x="46" y="-102"/>
      <point x="65" y="-79"/>
      <point x="91" y="-79" type="curve" smooth="yes"/>
      <point x="99" y="-79"/>
      <point x="110" y="-82"/>
      <point x="119" y="-86" type="curve" smooth="yes"/>
      <point x="162" y="-101"/>
      <point x="177" y="-104"/>
      <point x="187" y="-104" type="curve" smooth="yes"/>
      <point x="233" y="-104"/>
      <point x="279" y="-53"/>
      <point x="279" y="13" type="curve" smooth="yes"/>
      <point x="279" y="111"/>
      <point x="171" y="187"/>
      <point x="87" y="240" type="curve" smooth="yes"/>
      <point x="72" y="249"/>
      <point x="81" y="269"/>
      <point x="84" y="274" type="curve" smooth="yes"/>
      <point x="116" y="318"/>
      <point x="185" y="404"/>
      <point x="222" y="445" type="curve" smooth="yes"/>
      <point x="229" y="452"/>
      <point x="234" y="455"/>
      <point x="245" y="454" type="curve" smooth="yes"/>
      <point x="355" y="441" type="line" smooth="yes"/>
      <point x="372" y="439"/>
      <point x="386" y="434"/>
      <point x="380" y="413" type="curve" smooth="yes"/>
      <point x="376" y="397"/>
      <point x="351" y="363"/>
    </contour>
  </outline>
</glyph>
<glyph name="colon" format="1">
  <advance width="257"/>
  <unicode hex="003A"/>
  <outline>
    <contour>
      <point x="129" y="288" type="curve" smooth="yes"/>
      <point x="98" y="288"/>
      <point x="74" y="311"/>
      <point x="74" y="342" type="curve" smooth="yes"/>
      <point x="74" y="376"/>
      <point x="98" y="398"/>
      <point x="129" y="398" type="curve" smooth="yes"/>
      <point x="160" y="398"/>
      <point x="184" y="376"/>
      <point x="184" y="342" type="curve" smooth="yes"/>
      <point x="184" y="311"/>
      <point x="160" y="288"/>
    </contour>
    <contour>
      <point x="129" y="-7" type="curve" smooth="yes"/>
      <point x="98" y="-7"/>
      <point x="74" y="17"/>
      <point x="74" y="49" type="curve" smooth="yes"/>
      <point x="74" y="81"/>
      <point x="98" y="103"/>
      <point x="129" y="103" type="curve" smooth="yes"/>
      <point x="160" y="103"/>
      <point x="184" y="81"/>
      <point x="184" y="49" type="curve" smooth="yes"/>
      <point x="184" y="16"/>
      <point x="160" y="-7"/>
    </contour>
  </outline>
</glyph>
<glyph name="equal" format="1">
  <advance width="698"/>
  <unicode hex="003D"/>
  <outline>
    <contour>
      <point x="625" y="412" type="curve" smooth="yes"/>
      <point x="618" y="409"/>
      <point x="608" y="410"/>
      <point x="600" y="410" type="curve" smooth="yes"/>
      <point x="97" y="410" type="line" smooth="yes"/>
      <point x="75" y="407"/>
      <point x="71" y="420"/>
      <point x="67" y="436" type="curve"/>
      <point x="69" y="473" type="line" smooth="yes"/>
      <point x="73" y="490"/>
      <point x="90" y="493"/>
      <point x="100" y="493" type="curve" smooth="yes"/>
      <point x="226" y="494"/>
      <point x="482" y="493"/>
      <point x="604" y="496" type="curve" smooth="yes"/>
      <point x="633" y="497"/>
      <point x="635" y="475"/>
      <point x="635" y="456" type="curve" smooth="yes"/>
      <point x="635" y="451"/>
      <point x="636" y="444"/>
      <point x="636" y="436" type="curve" smooth="yes"/>
      <point x="636" y="424"/>
      <point x="633" y="416"/>
    </contour>
    <contour>
      <point x="635" y="216" type="curve" smooth="yes"/>
      <point x="634" y="195"/>
      <point x="636" y="186"/>
      <point x="607" y="186" type="curve" smooth="yes"/>
      <point x="100" y="186" type="line" smooth="yes"/>
      <point x="81" y="186"/>
      <point x="63" y="189"/>
      <point x="63" y="216" type="curve" smooth="yes"/>
      <point x="63" y="246" type="line" smooth="yes"/>
      <point x="63" y="265"/>
      <point x="72" y="272"/>
      <point x="90" y="272" type="curve" smooth="yes"/>
      <point x="94" y="272"/>
      <point x="98" y="273"/>
      <point x="101" y="272" type="curve" smooth="yes"/>
      <point x="227" y="270"/>
      <point x="472" y="271"/>
      <point x="607" y="271" type="curve" smooth="yes"/>
      <point x="643" y="271"/>
      <point x="636" y="239"/>
    </contour>
  </outline>
</glyph>
<glyph name="B" format="1">
  <advance width="656"/>
  <unicode hex="0042"/>
  <outline>
    <contour>
      <point x="459" y="6" type="curve" smooth="yes"/>
      <point x="427" y="0"/>
      <point x="409" y="-6"/>
      <point x="325" y="-4" type="curve" smooth="yes"/>
      <point x="228" y="-2"/>
      <point x="119" y="-2"/>
      <point x="34" y="-4" type="curve" smooth="yes"/>
      <point x="6" y="-2"/>
      <point x="20" y="49"/>
      <point x="31" y="53" type="curve" smooth="yes"/>
      <point x="39" y="54"/>
      <point x="50" y="56"/>
      <point x="58" y="54" type="curve" smooth="yes"/>
      <point x="130" y="54"/>
      <point x="137" y="63"/>
      <point x="137" y="139" type="curve" smooth="yes"/>
      <point x="137" y="509" type="line" smooth="yes"/>
      <point x="137" y="556"/>
      <point x="133" y="577"/>
      <point x="123" y="587" type="curve" smooth="yes"/>
      <point x="111" y="599"/>
      <point x="80" y="597"/>
      <point x="65" y="597" type="curve" smooth="yes"/>
      <point x="42" y="597" type="line" smooth="yes"/>
      <point x="25" y="597"/>
      <point x="28" y="650"/>
      <point x="41" y="651" type="curve" smooth="yes"/>
      <point x="144" y="662"/>
      <point x="228" y="660"/>
      <point x="331" y="660" type="curve" smooth="yes"/>
      <point x="418" y="660"/>
      <point x="441" y="653"/>
      <point x="488" y="632" type="curve" smooth="yes"/>
      <point x="545" y="607"/>
      <point x="582" y="555"/>
      <point x="582" y="498" type="curve" smooth="yes"/>
      <point x="582" y="445"/>
      <point x="548" y="399"/>
      <point x="500" y="374" type="curve" smooth="yes"/>
      <point x="494" y="371"/>
      <point x="497" y="368"/>
      <point x="501" y="366" type="curve" smooth="yes"/>
      <point x="572" y="332"/>
      <point x="620" y="275"/>
      <point x="620" y="203" type="curve" smooth="yes"/>
      <point x="620" y="109"/>
      <point x="549" y="23"/>
    </contour>
    <contour>
      <point x="417" y="583" type="curve" smooth="yes"/>
      <point x="373" y="619"/>
      <point x="319" y="613"/>
      <point x="267" y="609" type="curve" smooth="yes"/>
      <point x="262" y="607"/>
      <point x="258" y="603"/>
      <point x="258" y="596" type="curve" smooth="yes"/>
      <point x="258" y="403" type="line" smooth="yes"/>
      <point x="258" y="396"/>
      <point x="271" y="394"/>
      <point x="272" y="394" type="curve" smooth="yes"/>
      <point x="350" y="394"/>
      <point x="456" y="379"/>
      <point x="456" y="492" type="curve" smooth="yes"/>
      <point x="456" y="530"/>
      <point x="442" y="562"/>
    </contour>
    <contour>
      <point x="422" y="319" type="curve" smooth="yes"/>
      <point x="373" y="348"/>
      <point x="325" y="339"/>
      <point x="271" y="339" type="curve" smooth="yes"/>
      <point x="264" y="337"/>
      <point x="258" y="327"/>
      <point x="258" y="320" type="curve" smooth="yes"/>
      <point x="258" y="181" type="line" smooth="yes"/>
      <point x="258" y="148"/>
      <point x="260" y="120"/>
      <point x="263" y="105" type="curve" smooth="yes"/>
      <point x="268" y="75"/>
      <point x="290" y="58"/>
      <point x="357" y="58" type="curve" smooth="yes"/>
      <point x="437" y="58"/>
      <point x="491" y="119"/>
      <point x="491" y="197" type="curve" smooth="yes"/>
      <point x="491" y="248"/>
      <point x="465" y="294"/>
    </contour>
  </outline>
</glyph>
<glyph name="C" format="1">
  <advance width="762"/>
  <unicode hex="0043"/>
  <outline>
    <contour>
      <point x="630" y="5" type="curve"/>
      <point x="611" y="9"/>
      <point x="608" y="9"/>
      <point x="602" y="9" type="curve" smooth="yes"/>
      <point x="571" y="9"/>
      <point x="558" y="4"/>
      <point x="529" y="-5" type="curve" smooth="yes"/>
      <point x="491" y="-17"/>
      <point x="450" y="-19"/>
      <point x="412" y="-19" type="curve" smooth="yes"/>
      <point x="199" y="-19"/>
      <point x="48" y="123"/>
      <point x="48" y="317" type="curve" smooth="yes"/>
      <point x="48" y="522"/>
      <point x="203" y="665"/>
      <point x="423" y="665" type="curve" smooth="yes"/>
      <point x="496" y="665"/>
      <point x="530" y="651"/>
      <point x="598" y="628" type="curve" smooth="yes"/>
      <point x="607" y="625"/>
      <point x="618" y="621"/>
      <point x="626" y="628" type="curve" smooth="yes"/>
      <point x="634" y="634"/>
      <point x="663" y="634"/>
      <point x="666" y="621" type="curve" smooth="yes"/>
      <point x="675" y="582"/>
      <point x="677" y="554"/>
      <point x="676" y="531" type="curve" smooth="yes"/>
      <point x="676" y="509"/>
      <point x="675" y="491"/>
      <point x="676" y="471" type="curve"/>
      <point x="671" y="450"/>
      <point x="638" y="442"/>
      <point x="626" y="460" type="curve"/>
      <point x="594" y="553"/>
      <point x="527" y="607"/>
      <point x="429" y="607" type="curve" smooth="yes"/>
      <point x="277" y="607"/>
      <point x="183" y="504"/>
      <point x="183" y="338" type="curve" smooth="yes"/>
      <point x="183" y="167"/>
      <point x="291" y="43"/>
      <point x="443" y="43" type="curve" smooth="yes"/>
      <point x="507" y="43"/>
      <point x="551" y="62"/>
      <point x="596" y="103" type="curve" smooth="yes"/>
      <point x="621" y="125"/>
      <point x="629" y="133"/>
      <point x="653" y="177" type="curve" smooth="yes"/>
      <point x="663" y="196"/>
      <point x="711" y="194"/>
      <point x="704" y="169" type="curve" smooth="yes"/>
      <point x="688" y="117"/>
      <point x="661" y="56"/>
    </contour>
  </outline>
</glyph>
<glyph name="F" format="1">
  <advance width="543"/>
  <unicode hex="0046"/>
  <outline>
    <contour>
      <point x="501" y="511" type="line"/>
      <point x="486" y="501"/>
      <point x="473" y="503"/>
      <point x="462" y="506" type="curve" smooth="yes"/>
      <point x="453" y="508"/>
      <point x="451" y="515"/>
      <point x="451" y="523" type="curve" smooth="yes"/>
      <point x="447" y="574"/>
      <point x="438" y="583"/>
      <point x="354" y="583" type="curve" smooth="yes"/>
      <point x="251" y="583" type="line" smooth="yes"/>
      <point x="247" y="583"/>
      <point x="233" y="581"/>
      <point x="231" y="572" type="curve" smooth="yes"/>
      <point x="230" y="397" type="line" smooth="yes"/>
      <point x="230" y="381"/>
      <point x="242" y="383"/>
      <point x="251" y="381" type="curve" smooth="yes"/>
      <point x="291" y="378"/>
      <point x="316" y="380"/>
      <point x="357" y="381" type="curve" smooth="yes"/>
      <point x="427" y="381"/>
      <point x="430" y="384"/>
      <point x="434" y="423" type="curve" smooth="yes"/>
      <point x="437" y="444"/>
      <point x="480" y="450"/>
      <point x="483" y="426" type="curve" smooth="yes"/>
      <point x="483" y="417"/>
      <point x="485" y="302"/>
      <point x="483" y="251" type="curve" smooth="yes"/>
      <point x="481" y="240"/>
      <point x="438" y="223"/>
      <point x="435" y="251" type="curve" smooth="yes"/>
      <point x="430" y="308"/>
      <point x="425" y="315"/>
      <point x="353" y="313" type="curve" smooth="yes"/>
      <point x="325" y="312"/>
      <point x="277" y="312"/>
      <point x="248" y="313" type="curve" smooth="yes"/>
      <point x="240" y="312"/>
      <point x="231" y="304"/>
      <point x="231" y="299" type="curve" smooth="yes"/>
      <point x="231" y="106" type="line" smooth="yes"/>
      <point x="231" y="61"/>
      <point x="241" y="52"/>
      <point x="293" y="52" type="curve" smooth="yes"/>
      <point x="304" y="52" type="line" smooth="yes"/>
      <point x="318" y="50"/>
      <point x="320" y="37"/>
      <point x="320" y="23" type="curve" smooth="yes"/>
      <point x="320" y="10"/>
      <point x="313" y="-3"/>
      <point x="302" y="-3" type="curve" smooth="yes"/>
      <point x="229" y="-1"/>
      <point x="131" y="-1"/>
      <point x="56" y="-3" type="curve" smooth="yes"/>
      <point x="29" y="-4"/>
      <point x="35" y="47"/>
      <point x="52" y="50" type="curve" smooth="yes"/>
      <point x="104" y="53"/>
      <point x="113" y="61"/>
      <point x="113" y="106" type="curve" smooth="yes"/>
      <point x="113" y="542" type="line" smooth="yes"/>
      <point x="113" y="587"/>
      <point x="101" y="595"/>
      <point x="52" y="597" type="curve"/>
      <point x="31" y="602"/>
      <point x="31" y="653"/>
      <point x="58" y="650" type="curve" smooth="yes"/>
      <point x="171" y="651"/>
      <point x="365" y="651"/>
      <point x="478" y="650" type="curve" smooth="yes"/>
      <point x="491" y="650"/>
      <point x="504" y="635"/>
      <point x="504" y="622" type="curve" smooth="yes"/>
    </contour>
  </outline>
</glyph>
<glyph name="G" format="1">
  <advance width="763"/>
  <unicode hex="0047"/>
  <outline>
    <contour>
      <point x="709" y="245" type="curve" smooth="yes"/>
      <point x="668" y="240"/>
      <point x="664" y="234"/>
      <point x="663" y="189" type="curve" smooth="yes"/>
      <point x="662" y="163"/>
      <point x="662" y="108"/>
      <point x="663" y="79" type="curve" smooth="yes"/>
      <point x="663" y="69"/>
      <point x="662" y="50"/>
      <point x="649" y="43" type="curve" smooth="yes"/>
      <point x="580" y="9"/>
      <point x="471" y="-19"/>
      <point x="386" y="-19" type="curve" smooth="yes"/>
      <point x="188" y="-19"/>
      <point x="50" y="124"/>
      <point x="50" y="314" type="curve" smooth="yes"/>
      <point x="50" y="414"/>
      <point x="96" y="508"/>
      <point x="167" y="574" type="curve" smooth="yes"/>
      <point x="237" y="638"/>
      <point x="307" y="667"/>
      <point x="414" y="667" type="curve" smooth="yes"/>
      <point x="468" y="667"/>
      <point x="506" y="659"/>
      <point x="579" y="637" type="curve" smooth="yes"/>
      <point x="596" y="632"/>
      <point x="601" y="632"/>
      <point x="607" y="632" type="curve" smooth="yes"/>
      <point x="613" y="632"/>
      <point x="615" y="633"/>
      <point x="620" y="638" type="curve" smooth="yes"/>
      <point x="626" y="646"/>
      <point x="650" y="646"/>
      <point x="654" y="637" type="curve" smooth="yes"/>
      <point x="661" y="626"/>
      <point x="662" y="511"/>
      <point x="659" y="461" type="curve" smooth="yes"/>
      <point x="658" y="433"/>
      <point x="611" y="440"/>
      <point x="607" y="458" type="curve" smooth="yes"/>
      <point x="586" y="560"/>
      <point x="530" y="612"/>
      <point x="429" y="612" type="curve" smooth="yes"/>
      <point x="273" y="612"/>
      <point x="180" y="502"/>
      <point x="180" y="319" type="curve" smooth="yes"/>
      <point x="180" y="151"/>
      <point x="275" y="38"/>
      <point x="418" y="38" type="curve" smooth="yes"/>
      <point x="459" y="38"/>
      <point x="501" y="50"/>
      <point x="541" y="68" type="curve" smooth="yes"/>
      <point x="548" y="70"/>
      <point x="547" y="84"/>
      <point x="547" y="90" type="curve" smooth="yes"/>
      <point x="547" y="116"/>
      <point x="547" y="157"/>
      <point x="547" y="188" type="curve" smooth="yes"/>
      <point x="547" y="233"/>
      <point x="536" y="242"/>
      <point x="481" y="243" type="curve" smooth="yes"/>
      <point x="443" y="244" type="line" smooth="yes"/>
      <point x="426" y="244"/>
      <point x="408" y="294"/>
      <point x="443" y="298" type="curve"/>
      <point x="517" y="296"/>
      <point x="649" y="298"/>
      <point x="715" y="298" type="curve" smooth="yes"/>
      <point x="736" y="299"/>
      <point x="736" y="278"/>
      <point x="735" y="270" type="curve" smooth="yes"/>
      <point x="733" y="262"/>
      <point x="734" y="254"/>
      <point x="729" y="249" type="curve" smooth="yes"/>
      <point x="724" y="245"/>
      <point x="714" y="244"/>
    </contour>
  </outline>
</glyph>
<glyph name="O" format="1">
  <advance width="827"/>
  <unicode hex="004F"/>
  <outline>
    <contour>
      <point x="413" y="-19" type="curve" smooth="yes"/>
      <point x="202" y="-19"/>
      <point x="45" y="125"/>
      <point x="45" y="312" type="curve" smooth="yes"/>
      <point x="45" y="515"/>
      <point x="200" y="667"/>
      <point x="415" y="667" type="curve" smooth="yes"/>
      <point x="626" y="667"/>
      <point x="777" y="527"/>
      <point x="777" y="339" type="curve" smooth="yes"/>
      <point x="777" y="138"/>
      <point x="622" y="-19"/>
    </contour>
    <contour>
      <point x="387" y="610" type="curve" smooth="yes"/>
      <point x="260" y="610"/>
      <point x="176" y="502"/>
      <point x="176" y="338" type="curve" smooth="yes"/>
      <point x="176" y="166"/>
      <point x="282" y="39"/>
      <point x="430" y="39" type="curve" smooth="yes"/>
      <point x="594" y="39"/>
      <point x="646" y="163"/>
      <point x="646" y="309" type="curve" smooth="yes"/>
      <point x="646" y="487"/>
      <point x="542" y="610"/>
    </contour>
  </outline>
</glyph>
<glyph name="T" format="1">
  <advance width="681"/>
  <unicode hex="0054"/>
  <outline>
    <contour>
      <point x="657" y="490" type="line" smooth="yes"/>
      <point x="658" y="474"/>
      <point x="643" y="469"/>
      <point x="634" y="469" type="curve" smooth="yes"/>
      <point x="614" y="469"/>
      <point x="608" y="476"/>
      <point x="605" y="492" type="curve" smooth="yes"/>
      <point x="588" y="575"/>
      <point x="574" y="582"/>
      <point x="548" y="582" type="curve" smooth="yes"/>
      <point x="416" y="582" type="line" smooth="yes"/>
      <point x="411" y="582"/>
      <point x="403" y="578"/>
      <point x="403" y="557" type="curve" smooth="yes"/>
      <point x="403" y="493"/>
      <point x="403" y="249"/>
      <point x="403" y="140" type="curve" smooth="yes"/>
      <point x="403" y="106" type="line" smooth="yes"/>
      <point x="403" y="75"/>
      <point x="408" y="57"/>
      <point x="466" y="57" type="curve" smooth="yes"/>
      <point x="494" y="57" type="line" smooth="yes"/>
      <point x="519" y="57"/>
      <point x="523" y="25"/>
      <point x="518" y="12" type="curve" smooth="yes"/>
      <point x="512" y="-4"/>
      <point x="500" y="-3"/>
      <point x="492" y="-3" type="curve" smooth="yes"/>
      <point x="414" y="0"/>
      <point x="265" y="-2"/>
      <point x="192" y="-4" type="curve" smooth="yes"/>
      <point x="177" y="-4"/>
      <point x="172" y="4"/>
      <point x="170" y="10" type="curve" smooth="yes"/>
      <point x="167" y="18"/>
      <point x="167" y="32"/>
      <point x="170" y="41" type="curve" smooth="yes"/>
      <point x="177" y="52"/>
      <point x="180" y="52"/>
      <point x="191" y="54" type="curve" smooth="yes"/>
      <point x="204" y="54"/>
      <point x="215" y="55"/>
      <point x="230" y="54" type="curve" smooth="yes"/>
      <point x="256" y="54"/>
      <point x="282" y="56"/>
      <point x="282" y="106" type="curve" smooth="yes"/>
      <point x="282" y="140" type="line" smooth="yes"/>
      <point x="282" y="260"/>
      <point x="283" y="547"/>
      <point x="282" y="560" type="curve" smooth="yes"/>
      <point x="282" y="566"/>
      <point x="280" y="582"/>
      <point x="265" y="582" type="curve" smooth="yes"/>
      <point x="159" y="582" type="line"/>
      <point x="139" y="582" type="line" smooth="yes"/>
      <point x="112" y="582"/>
      <point x="97" y="574"/>
      <point x="78" y="478" type="curve"/>
      <point x="60" y="466"/>
      <point x="28" y="474"/>
      <point x="29" y="491" type="curve" smooth="yes"/>
      <point x="31" y="531"/>
      <point x="39" y="614"/>
      <point x="45" y="661" type="curve"/>
      <point x="61" y="679"/>
      <point x="89" y="674"/>
      <point x="94" y="661" type="curve" smooth="yes"/>
      <point x="99" y="649"/>
      <point x="129" y="651"/>
      <point x="139" y="651" type="curve" smooth="yes"/>
      <point x="239" y="650"/>
      <point x="442" y="650"/>
      <point x="545" y="651" type="curve" smooth="yes"/>
      <point x="557" y="651"/>
      <point x="577" y="651"/>
      <point x="582" y="652" type="curve" smooth="yes"/>
      <point x="586" y="653"/>
      <point x="589" y="654"/>
      <point x="592" y="661" type="curve" smooth="yes"/>
      <point x="596" y="671"/>
      <point x="617" y="672"/>
      <point x="628" y="670" type="curve" smooth="yes"/>
      <point x="638" y="668"/>
      <point x="641" y="661"/>
      <point x="642" y="652" type="curve" smooth="yes"/>
    </contour>
  </outline>
</glyph>
<glyph name="bracketleft" format="1">
  <advance width="337"/>
  <unicode hex="005B"/>
  <outline>
    <contour>
      <point x="250" y="-227" type="curve" smooth="yes"/>
      <point x="218" y="-229"/>
      <point x="160" y="-230"/>
      <point x="128" y="-229" type="curve" smooth="yes"/>
      <point x="111" y="-228"/>
      <point x="99" y="-220"/>
      <point x="99" y="-199" type="curve" smooth="yes"/>
      <point x="99" y="14"/>
      <point x="99" y="446"/>
      <point x="99" y="659" type="curve" smooth="yes"/>
      <point x="99" y="682"/>
      <point x="107" y="688"/>
      <point x="129" y="690" type="curve" smooth="yes"/>
      <point x="165" y="693"/>
      <point x="219" y="689"/>
      <point x="255" y="689" type="curve" smooth="yes"/>
      <point x="265" y="689"/>
      <point x="277" y="689"/>
      <point x="277" y="676" type="curve" smooth="yes"/>
      <point x="277" y="656" type="line" smooth="yes"/>
      <point x="277" y="644"/>
      <point x="270" y="641"/>
      <point x="260" y="640" type="curve" smooth="yes"/>
      <point x="248" y="639"/>
      <point x="210" y="638"/>
      <point x="201" y="633" type="curve" smooth="yes"/>
      <point x="198" y="631"/>
      <point x="194" y="628"/>
      <point x="194" y="612" type="curve" smooth="yes"/>
      <point x="194" y="422"/>
      <point x="194" y="40"/>
      <point x="194" y="-153" type="curve" smooth="yes"/>
      <point x="194" y="-174"/>
      <point x="199" y="-173"/>
      <point x="235" y="-176" type="curve" smooth="yes"/>
      <point x="261" y="-178" type="line" smooth="yes"/>
      <point x="274" y="-179"/>
      <point x="277" y="-184"/>
      <point x="277" y="-199" type="curve" smooth="yes"/>
      <point x="277" y="-215" type="line" smooth="yes"/>
      <point x="277" y="-228"/>
      <point x="261" y="-226"/>
    </contour>
  </outline>
</glyph>
<glyph name="bracketright" format="1">
  <advance width="343"/>
  <unicode hex="005D"/>
  <outline>
    <contour>
      <point x="205" y="-199" type="curve" smooth="yes"/>
      <point x="205" y="-220"/>
      <point x="191" y="-228"/>
      <point x="174" y="-229" type="curve" smooth="yes"/>
      <point x="142" y="-230"/>
      <point x="79" y="-231"/>
      <point x="47" y="-229" type="curve" smooth="yes"/>
      <point x="38" y="-228"/>
      <point x="27" y="-223"/>
      <point x="27" y="-210" type="curve" smooth="yes"/>
      <point x="27" y="-194" type="line" smooth="yes"/>
      <point x="27" y="-186"/>
      <point x="33" y="-182"/>
      <point x="41" y="-180" type="curve" smooth="yes"/>
      <point x="49" y="-178"/>
      <point x="64" y="-178"/>
      <point x="73" y="-177" type="curve" smooth="yes"/>
      <point x="95" y="-176"/>
      <point x="109" y="-176"/>
      <point x="110" y="-152" type="curve" smooth="yes"/>
      <point x="111" y="39"/>
      <point x="113" y="421"/>
      <point x="110" y="614" type="curve" smooth="yes"/>
      <point x="109" y="634"/>
      <point x="106" y="635"/>
      <point x="89" y="637" type="curve" smooth="yes"/>
      <point x="74" y="638"/>
      <point x="59" y="639"/>
      <point x="44" y="640" type="curve" smooth="yes"/>
      <point x="36" y="641"/>
      <point x="27" y="642"/>
      <point x="27" y="655" type="curve" smooth="yes"/>
      <point x="27" y="673" type="line" smooth="yes"/>
      <point x="27" y="687"/>
      <point x="36" y="690"/>
      <point x="43" y="690" type="curve" smooth="yes"/>
      <point x="54" y="690" type="line" smooth="yes"/>
      <point x="86" y="690"/>
      <point x="145" y="692"/>
      <point x="175" y="690" type="curve" smooth="yes"/>
      <point x="198" y="688"/>
      <point x="205" y="677"/>
      <point x="205" y="654" type="curve" smooth="yes"/>
      <point x="205" y="441"/>
      <point x="205" y="14"/>
    </contour>
  </outline>
</glyph>
<glyph name="grave" format="1">
  <advance width="348"/>
  <unicode hex="0060"/>
  <outline>
    <contour>
      <point x="193" y="483" type="curve" smooth="yes"/>
      <point x="163" y="521"/>
      <point x="108" y="582"/>
      <point x="68" y="624" type="curve" smooth="yes"/>
      <point x="52" y="641"/>
      <point x="76" y="657"/>
      <point x="88" y="657" type="curve" smooth="yes"/>
      <point x="160" y="658" type="line" smooth="yes"/>
      <point x="169" y="658"/>
      <point x="179" y="658"/>
      <point x="187" y="646" type="curve" smooth="yes"/>
      <point x="204" y="604"/>
      <point x="224" y="537"/>
      <point x="234" y="497" type="curve" smooth="yes"/>
      <point x="236" y="473"/>
      <point x="205" y="473"/>
    </contour>
  </outline>
</glyph>
<glyph name="b" format="1">
  <advance width="494"/>
  <unicode hex="0062"/>
  <outline>
    <contour>
      <point x="171" y="376" type="curve"/>
      <point x="204" y="399"/>
      <point x="253" y="436"/>
      <point x="295" y="436" type="curve" smooth="yes"/>
      <point x="391" y="436"/>
      <point x="464" y="341"/>
      <point x="464" y="232" type="curve" smooth="yes"/>
      <point x="464" y="93"/>
      <point x="367" y="-15"/>
      <point x="230" y="-15" type="curve" smooth="yes"/>
      <point x="200" y="-15"/>
      <point x="142" y="-7"/>
      <point x="92" y="4" type="curve" smooth="yes"/>
      <point x="83" y="7"/>
      <point x="76" y="20"/>
      <point x="75" y="31" type="curve" smooth="yes"/>
      <point x="77" y="224"/>
      <point x="76" y="461"/>
      <point x="75" y="586" type="curve" smooth="yes"/>
      <point x="75" y="603"/>
      <point x="74" y="614"/>
      <point x="74" y="621" type="curve" smooth="yes"/>
      <point x="74" y="626"/>
      <point x="73" y="628"/>
      <point x="61" y="630" type="curve" smooth="yes"/>
      <point x="47" y="632"/>
      <point x="34" y="635"/>
      <point x="19" y="638" type="curve" smooth="yes"/>
      <point x="1" y="644"/>
      <point x="1" y="678"/>
      <point x="19" y="684" type="curve" smooth="yes"/>
      <point x="138" y="724" type="line" smooth="yes"/>
      <point x="164" y="732"/>
      <point x="170" y="720"/>
      <point x="170" y="700" type="curve" smooth="yes"/>
      <point x="170" y="633"/>
      <point x="170" y="473"/>
      <point x="170" y="388" type="curve" smooth="yes"/>
      <point x="170" y="382"/>
      <point x="170" y="378"/>
    </contour>
    <contour>
      <point x="258" y="357" type="curve" smooth="yes"/>
      <point x="235" y="357"/>
      <point x="213" y="345"/>
      <point x="174" y="317" type="curve" smooth="yes"/>
      <point x="171" y="315"/>
      <point x="171" y="306"/>
      <point x="171" y="294" type="curve" smooth="yes"/>
      <point x="170" y="275"/>
      <point x="170" y="248"/>
      <point x="170" y="221" type="curve" smooth="yes"/>
      <point x="170" y="175"/>
      <point x="171" y="128"/>
      <point x="177" y="106" type="curve" smooth="yes"/>
      <point x="185" y="71"/>
      <point x="214" y="48"/>
      <point x="255" y="48" type="curve" smooth="yes"/>
      <point x="320" y="48"/>
      <point x="366" y="106"/>
      <point x="366" y="201" type="curve" smooth="yes"/>
      <point x="366" y="298"/>
      <point x="318" y="357"/>
    </contour>
  </outline>
</glyph>
<glyph name="e" format="1">
  <advance width="427"/>
  <unicode hex="0065"/>
  <outline>
    <contour>
      <point x="387" y="254" type="curve" smooth="yes"/>
      <point x="312" y="251"/>
      <point x="194" y="253"/>
      <point x="132" y="254" type="curve" smooth="yes"/>
      <point x="118" y="254"/>
      <point x="118" y="235"/>
      <point x="118" y="226" type="curve" smooth="yes"/>
      <point x="118" y="132"/>
      <point x="176" y="66"/>
      <point x="251" y="66" type="curve" smooth="yes"/>
      <point x="294" y="66"/>
      <point x="328" y="82"/>
      <point x="364" y="124" type="curve" smooth="yes"/>
      <point x="369" y="130"/>
      <point x="380" y="134"/>
      <point x="389" y="132" type="curve" smooth="yes"/>
      <point x="402" y="129"/>
      <point x="413" y="110"/>
      <point x="405" y="96" type="curve" smooth="yes"/>
      <point x="356" y="41"/>
      <point x="294" y="-15"/>
      <point x="212" y="-15" type="curve" smooth="yes"/>
      <point x="102" y="-15"/>
      <point x="21" y="83"/>
      <point x="21" y="202" type="curve" smooth="yes"/>
      <point x="21" y="331"/>
      <point x="111" y="429"/>
      <point x="232" y="429" type="curve" smooth="yes"/>
      <point x="304" y="429"/>
      <point x="352" y="401"/>
      <point x="381" y="339" type="curve" smooth="yes"/>
      <point x="389" y="323"/>
      <point x="397" y="307"/>
      <point x="408" y="293" type="curve"/>
      <point x="414" y="277"/>
      <point x="412" y="255"/>
    </contour>
    <contour>
      <point x="210" y="379" type="curve" smooth="yes"/>
      <point x="177" y="379"/>
      <point x="149" y="357"/>
      <point x="130" y="308" type="curve" smooth="yes"/>
      <point x="129" y="305"/>
      <point x="137" y="305"/>
      <point x="143" y="305" type="curve" smooth="yes"/>
      <point x="278" y="305" type="line" smooth="yes"/>
      <point x="286" y="305"/>
      <point x="291" y="308"/>
      <point x="290" y="312" type="curve" smooth="yes"/>
      <point x="276" y="357"/>
      <point x="245" y="379"/>
    </contour>
  </outline>
</glyph>
<glyph name="g" format="1">
  <advance width="486"/>
  <unicode hex="0067"/>
  <outline>
    <contour>
      <point x="460" y="-65" type="curve" smooth="yes"/>
      <point x="460" y="-173"/>
      <point x="332" y="-250"/>
      <point x="191" y="-250" type="curve" smooth="yes"/>
      <point x="125" y="-250"/>
      <point x="23" y="-210"/>
      <point x="23" y="-133" type="curve" smooth="yes"/>
      <point x="23" y="-73"/>
      <point x="59" y="-47"/>
      <point x="103" y="-20" type="curve" smooth="yes"/>
      <point x="107" y="-17"/>
      <point x="109" y="-13"/>
      <point x="106" y="-12" type="curve" smooth="yes"/>
      <point x="60" y="7"/>
      <point x="41" y="35"/>
      <point x="41" y="66" type="curve" smooth="yes"/>
      <point x="41" y="91"/>
      <point x="71" y="105"/>
      <point x="89" y="115" type="curve" smooth="yes"/>
      <point x="100" y="121"/>
      <point x="109" y="126"/>
      <point x="117" y="131" type="curve" smooth="yes"/>
      <point x="121" y="134"/>
      <point x="115" y="137"/>
      <point x="115" y="137" type="curve"/>
      <point x="73" y="164"/>
      <point x="48" y="206"/>
      <point x="48" y="258" type="curve" smooth="yes"/>
      <point x="48" y="356"/>
      <point x="126" y="429"/>
      <point x="223" y="429" type="curve" smooth="yes"/>
      <point x="266" y="429"/>
      <point x="303" y="416"/>
      <point x="331" y="388" type="curve"/>
      <point x="334" y="388" type="line" smooth="yes"/>
      <point x="340" y="388"/>
      <point x="397" y="395"/>
      <point x="421" y="399" type="curve" smooth="yes"/>
      <point x="439" y="401"/>
      <point x="450" y="401"/>
      <point x="452" y="379" type="curve" smooth="yes"/>
      <point x="453" y="362"/>
      <point x="456" y="344"/>
      <point x="455" y="326" type="curve" smooth="yes"/>
      <point x="453" y="318"/>
      <point x="450" y="305"/>
      <point x="435" y="305" type="curve" smooth="yes"/>
      <point x="426" y="305"/>
      <point x="397" y="309"/>
      <point x="383" y="310" type="curve" smooth="yes"/>
      <point x="378" y="311"/>
      <point x="379" y="302"/>
      <point x="379" y="303" type="curve"/>
      <point x="383" y="290"/>
      <point x="384" y="280"/>
      <point x="384" y="266" type="curve" smooth="yes"/>
      <point x="384" y="171"/>
      <point x="308" y="108"/>
      <point x="209" y="108" type="curve" smooth="yes"/>
      <point x="196" y="108"/>
      <point x="184" y="109"/>
      <point x="172" y="112" type="curve"/>
      <point x="165" y="104"/>
      <point x="156" y="98"/>
      <point x="148" y="91" type="curve" smooth="yes"/>
      <point x="137" y="82"/>
      <point x="124" y="71"/>
      <point x="145" y="65" type="curve" smooth="yes"/>
      <point x="159" y="61"/>
      <point x="187" y="58"/>
      <point x="244" y="58" type="curve" smooth="yes"/>
      <point x="334" y="57"/>
      <point x="460" y="56"/>
    </contour>
    <contour>
      <point x="291" y="260" type="curve" smooth="yes"/>
      <point x="291" y="332"/>
      <point x="253" y="376"/>
      <point x="211" y="376" type="curve" smooth="yes"/>
      <point x="174" y="376"/>
      <point x="142" y="338"/>
      <point x="142" y="278" type="curve" smooth="yes"/>
      <point x="142" y="201"/>
      <point x="179" y="162"/>
      <point x="219" y="162" type="curve" smooth="yes"/>
      <point x="259" y="162"/>
      <point x="291" y="194"/>
    </contour>
    <contour>
      <point x="379" y="-91" type="curve" smooth="yes"/>
      <point x="379" y="-57"/>
      <point x="363" y="-38"/>
      <point x="281" y="-32" type="curve" smooth="yes"/>
      <point x="240" y="-29"/>
      <point x="213" y="-31"/>
      <point x="174" y="-29" type="curve"/>
      <point x="166" y="-39"/>
      <point x="156" y="-46"/>
      <point x="148" y="-55" type="curve" smooth="yes"/>
      <point x="135" y="-68"/>
      <point x="117" y="-91"/>
      <point x="117" y="-107" type="curve" smooth="yes"/>
      <point x="116" y="-147"/>
      <point x="173" y="-180"/>
      <point x="245" y="-180" type="curve" smooth="yes"/>
      <point x="306" y="-180"/>
      <point x="379" y="-132"/>
    </contour>
  </outline>
</glyph>
<glyph name="r" format="1">
  <advance width="363"/>
  <unicode hex="0072"/>
  <outline>
    <contour>
      <point x="318" y="312" type="curve"/>
      <point x="297" y="314"/>
      <point x="290" y="317"/>
      <point x="272" y="326" type="curve" smooth="yes"/>
      <point x="260" y="332"/>
      <point x="252" y="336"/>
      <point x="242" y="336" type="curve" smooth="yes"/>
      <point x="230" y="336"/>
      <point x="214" y="328"/>
      <point x="189" y="283" type="curve"/>
      <point x="189" y="197"/>
      <point x="189" y="162"/>
      <point x="189" y="143" type="curve" smooth="yes"/>
      <point x="189" y="123"/>
      <point x="190" y="120"/>
      <point x="190" y="95" type="curve" smooth="yes"/>
      <point x="192" y="52"/>
      <point x="193" y="50"/>
      <point x="236" y="50" type="curve" smooth="yes"/>
      <point x="257" y="50" type="line" smooth="yes"/>
      <point x="282" y="50"/>
      <point x="280" y="10"/>
      <point x="269" y="0" type="curve" smooth="yes"/>
      <point x="265" y="-3"/>
      <point x="260" y="-3"/>
      <point x="256" y="-3" type="curve" smooth="yes"/>
      <point x="186" y="-3"/>
      <point x="115" y="1"/>
      <point x="44" y="-3" type="curve" smooth="yes"/>
      <point x="23" y="-4"/>
      <point x="22" y="12"/>
      <point x="22" y="23" type="curve" smooth="yes"/>
      <point x="22" y="40"/>
      <point x="23" y="49"/>
      <point x="45" y="49" type="curve" smooth="yes"/>
      <point x="80" y="49"/>
      <point x="90" y="52"/>
      <point x="90" y="136" type="curve" smooth="yes"/>
      <point x="90" y="308" type="line" smooth="yes"/>
      <point x="90" y="310"/>
      <point x="89" y="323"/>
      <point x="87" y="324" type="curve" smooth="yes"/>
      <point x="75" y="329"/>
      <point x="55" y="336"/>
      <point x="40" y="342" type="curve" smooth="yes"/>
      <point x="31" y="346"/>
      <point x="26" y="346"/>
      <point x="25" y="357" type="curve" smooth="yes"/>
      <point x="25" y="371" type="line" smooth="yes"/>
      <point x="25" y="382"/>
      <point x="30" y="388"/>
      <point x="39" y="391" type="curve" smooth="yes"/>
      <point x="74" y="409"/>
      <point x="97" y="413"/>
      <point x="154" y="434" type="curve" smooth="yes"/>
      <point x="175" y="442"/>
      <point x="186" y="428"/>
      <point x="186" y="414" type="curve" smooth="yes"/>
      <point x="187" y="400"/>
      <point x="187" y="371"/>
      <point x="187" y="357" type="curve"/>
      <point x="194" y="372"/>
      <point x="206" y="411"/>
      <point x="221" y="419" type="curve" smooth="yes"/>
      <point x="260" y="439"/>
      <point x="290" y="416"/>
      <point x="326" y="408" type="curve" smooth="yes"/>
      <point x="329" y="407"/>
      <point x="332" y="406"/>
      <point x="335" y="405" type="curve" smooth="yes"/>
      <point x="341" y="403"/>
      <point x="355" y="395"/>
      <point x="350" y="381" type="curve" smooth="yes"/>
      <point x="343" y="359"/>
      <point x="332" y="337"/>
    </contour>
  </outline>
</glyph>
<glyph name="t" format="1">
  <advance width="322"/>
  <unicode hex="0074"/>
  <outline>
    <contour>
      <point x="180" y="-11" type="curve" smooth="yes"/>
      <point x="112" y="-11"/>
      <point x="66" y="45"/>
      <point x="66" y="120" type="curve" smooth="yes"/>
      <point x="66" y="159" type="line"/>
      <point x="66" y="339" type="line" smooth="yes"/>
      <point x="66" y="349"/>
      <point x="65" y="351"/>
      <point x="61" y="352" type="curve" smooth="yes"/>
      <point x="47" y="353"/>
      <point x="41" y="354"/>
      <point x="26" y="356" type="curve"/>
      <point x="20" y="366"/>
      <point x="16" y="380"/>
      <point x="20" y="389" type="curve" smooth="yes"/>
      <point x="23" y="395"/>
      <point x="30" y="400"/>
      <point x="33" y="401" type="curve" smooth="yes"/>
      <point x="67" y="418"/>
      <point x="94" y="460"/>
      <point x="116" y="521" type="curve" smooth="yes"/>
      <point x="120" y="540"/>
      <point x="163" y="543"/>
      <point x="162" y="518" type="curve" smooth="yes"/>
      <point x="161" y="496"/>
      <point x="160" y="452"/>
      <point x="162" y="430" type="curve" smooth="yes"/>
      <point x="162" y="428"/>
      <point x="169" y="428"/>
      <point x="171" y="427" type="curve" smooth="yes"/>
      <point x="268" y="427" type="line" smooth="yes"/>
      <point x="278" y="427"/>
      <point x="296" y="420"/>
      <point x="290" y="399" type="curve" smooth="yes"/>
      <point x="288" y="389"/>
      <point x="284" y="375"/>
      <point x="280" y="365" type="curve" smooth="yes"/>
      <point x="274" y="354"/>
      <point x="269" y="352"/>
      <point x="255" y="352" type="curve" smooth="yes"/>
      <point x="172" y="354" type="line" smooth="yes"/>
      <point x="168" y="354"/>
      <point x="162" y="351"/>
      <point x="162" y="338" type="curve" smooth="yes"/>
      <point x="162" y="182" type="line" smooth="yes"/>
      <point x="162" y="80"/>
      <point x="177" y="65"/>
      <point x="211" y="65" type="curve" smooth="yes"/>
      <point x="224" y="65"/>
      <point x="241" y="75"/>
      <point x="260" y="110" type="curve" smooth="yes"/>
      <point x="267" y="128"/>
      <point x="292" y="119"/>
      <point x="299" y="112" type="curve" smooth="yes"/>
      <point x="308" y="101"/>
      <point x="307" y="98"/>
      <point x="302" y="83" type="curve" smooth="yes"/>
      <point x="276" y="25"/>
      <point x="233" y="-11"/>
    </contour>
  </outline>
</glyph>
<glyph name="u" format="1">
  <advance width="534"/>
  <unicode hex="0075"/>
  <outline>
    <contour>
      <point x="399" y="-6" type="curve" smooth="yes"/>
      <point x="382" y="-10"/>
      <point x="359" y="-12"/>
      <point x="358" y="17" type="curve" smooth="yes"/>
      <point x="357" y="19"/>
      <point x="357" y="37"/>
      <point x="356" y="51" type="curve" smooth="yes"/>
      <point x="356" y="58"/>
      <point x="355" y="59"/>
      <point x="347" y="53" type="curve" smooth="yes"/>
      <point x="305" y="23"/>
      <point x="259" y="-10"/>
      <point x="203" y="-10" type="curve" smooth="yes"/>
      <point x="118" y="-10"/>
      <point x="82" y="48"/>
      <point x="82" y="132" type="curve" smooth="yes"/>
      <point x="82" y="335" type="line" smooth="yes"/>
      <point x="82" y="352"/>
      <point x="80" y="356"/>
      <point x="68" y="360" type="curve" smooth="yes"/>
      <point x="55" y="364"/>
      <point x="42" y="367"/>
      <point x="29" y="371" type="curve" smooth="yes"/>
      <point x="21" y="372"/>
      <point x="10" y="408"/>
      <point x="38" y="414" type="curve" smooth="yes"/>
      <point x="68" y="421"/>
      <point x="119" y="438"/>
      <point x="154" y="445" type="curve" smooth="yes"/>
      <point x="175" y="449"/>
      <point x="182" y="430"/>
      <point x="182" y="420" type="curve" smooth="yes"/>
      <point x="182" y="185" type="line" smooth="yes"/>
      <point x="182" y="84"/>
      <point x="199" y="67"/>
      <point x="255" y="67" type="curve" smooth="yes"/>
      <point x="281" y="67"/>
      <point x="317" y="84"/>
      <point x="354" y="112" type="curve" smooth="yes"/>
      <point x="355" y="116"/>
      <point x="357" y="120"/>
      <point x="357" y="124" type="curve" smooth="yes"/>
      <point x="357" y="288" type="line" smooth="yes"/>
      <point x="357" y="294"/>
      <point x="357" y="302"/>
      <point x="357" y="310" type="curve" smooth="yes"/>
      <point x="357" y="328"/>
      <point x="356" y="360"/>
      <point x="333" y="365" type="curve" smooth="yes"/>
      <point x="314" y="368"/>
      <point x="296" y="371"/>
      <point x="277" y="374" type="curve"/>
      <point x="263" y="382"/>
      <point x="260" y="414"/>
      <point x="280" y="418" type="curve" smooth="yes"/>
      <point x="321" y="427"/>
      <point x="388" y="442"/>
      <point x="424" y="446" type="curve" smooth="yes"/>
      <point x="438" y="447"/>
      <point x="455" y="441"/>
      <point x="455" y="421" type="curve" smooth="yes"/>
      <point x="455" y="115" type="line"/>
      <point x="455" y="85" type="line" smooth="yes"/>
      <point x="455" y="66"/>
      <point x="471" y="71"/>
      <point x="484" y="74" type="curve" smooth="yes"/>
      <point x="490" y="76"/>
      <point x="498" y="78"/>
      <point x="504" y="80" type="curve" smooth="yes"/>
      <point x="531" y="84"/>
      <point x="534" y="35"/>
      <point x="511" y="30" type="curve"/>
      <point x="481" y="17"/>
      <point x="433" y="1"/>
    </contour>
  </outline>
</glyph>
<glyph name="w" format="1">
  <advance width="769"/>
  <unicode hex="0077"/>
  <outline>
    <contour>
      <point x="546" y="137" type="curve" smooth="yes"/>
      <point x="552" y="151"/>
      <point x="566" y="184"/>
      <point x="582" y="223" type="curve" smooth="yes"/>
      <point x="603" y="272"/>
      <point x="623" y="322"/>
      <point x="625" y="334" type="curve" smooth="yes"/>
      <point x="631" y="364"/>
      <point x="610" y="366"/>
      <point x="587" y="367" type="curve" smooth="yes"/>
      <point x="579" y="367"/>
      <point x="571" y="367"/>
      <point x="564" y="367" type="curve" smooth="yes"/>
      <point x="552" y="371"/>
      <point x="546" y="417"/>
      <point x="568" y="417" type="curve" smooth="yes"/>
      <point x="610" y="416"/>
      <point x="679" y="416"/>
      <point x="737" y="417" type="curve" smooth="yes"/>
      <point x="767" y="421"/>
      <point x="762" y="369"/>
      <point x="744" y="367" type="curve" smooth="yes"/>
      <point x="730" y="366"/>
      <point x="711" y="365"/>
      <point x="701" y="352" type="curve" smooth="yes"/>
      <point x="697" y="346"/>
      <point x="690" y="330"/>
      <point x="682" y="311" type="curve" smooth="yes"/>
      <point x="638" y="208"/>
      <point x="595" y="104"/>
      <point x="553" y="1" type="curve" smooth="yes"/>
      <point x="550" y="-8"/>
      <point x="544" y="-8"/>
      <point x="535" y="-9" type="curve" smooth="yes"/>
      <point x="529" y="-10"/>
      <point x="518" y="-10"/>
      <point x="510" y="-8" type="curve" smooth="yes"/>
      <point x="499" y="-7"/>
      <point x="493" y="-5"/>
      <point x="488" y="6" type="curve" smooth="yes"/>
      <point x="393" y="232" type="line" smooth="yes"/>
      <point x="389" y="240"/>
      <point x="386" y="242"/>
      <point x="383" y="235" type="curve" smooth="yes"/>
      <point x="347" y="161"/>
      <point x="316" y="79"/>
      <point x="283" y="4" type="curve" smooth="yes"/>
      <point x="280" y="-4"/>
      <point x="278" y="-9"/>
      <point x="267" y="-11" type="curve" smooth="yes"/>
      <point x="261" y="-13"/>
      <point x="241" y="-12"/>
      <point x="236" y="-11" type="curve" smooth="yes"/>
      <point x="224" y="-8"/>
      <point x="222" y="-2"/>
      <point x="218" y="7" type="curve" smooth="yes"/>
      <point x="98" y="293" type="line" smooth="yes"/>
      <point x="68" y="363"/>
      <point x="64" y="364"/>
      <point x="21" y="367" type="curve" smooth="yes"/>
      <point x="6" y="368"/>
      <point x="5" y="398"/>
      <point x="12" y="409" type="curve" smooth="yes"/>
      <point x="18" y="418"/>
      <point x="23" y="417"/>
      <point x="31" y="416" type="curve" smooth="yes"/>
      <point x="93" y="416"/>
      <point x="151" y="414"/>
      <point x="214" y="417" type="curve" smooth="yes"/>
      <point x="226" y="417"/>
      <point x="230" y="413"/>
      <point x="234" y="401" type="curve" smooth="yes"/>
      <point x="237" y="390"/>
      <point x="237" y="369"/>
      <point x="220" y="368" type="curve" smooth="yes"/>
      <point x="183" y="367"/>
      <point x="182" y="361"/>
      <point x="182" y="356" type="curve" smooth="yes"/>
      <point x="182" y="340"/>
      <point x="248" y="185"/>
      <point x="269" y="134" type="curve" smooth="yes"/>
      <point x="273" y="124"/>
      <point x="276" y="126"/>
      <point x="280" y="134" type="curve" smooth="yes"/>
      <point x="355" y="308" type="line"/>
      <point x="348" y="322"/>
      <point x="339" y="341"/>
      <point x="328" y="352" type="curve" smooth="yes"/>
      <point x="316" y="363"/>
      <point x="308" y="366"/>
      <point x="292" y="366" type="curve" smooth="yes"/>
      <point x="286" y="367"/>
      <point x="286" y="367"/>
      <point x="279" y="367" type="curve" smooth="yes"/>
      <point x="269" y="367"/>
      <point x="262" y="381"/>
      <point x="262" y="391" type="curve" smooth="yes"/>
      <point x="261" y="402"/>
      <point x="266" y="417"/>
      <point x="277" y="417" type="curve" smooth="yes"/>
      <point x="322" y="416"/>
      <point x="419" y="411"/>
      <point x="472" y="416" type="curve" smooth="yes"/>
      <point x="478" y="417" type="line" smooth="yes"/>
      <point x="510" y="420"/>
      <point x="506" y="376"/>
      <point x="493" y="367" type="curve"/>
      <point x="453" y="366"/>
      <point x="448" y="361"/>
      <point x="448" y="353" type="curve" smooth="yes"/>
      <point x="448" y="346"/>
      <point x="450" y="338"/>
      <point x="462" y="310" type="curve" smooth="yes"/>
      <point x="537" y="136" type="line" smooth="yes"/>
      <point x="540" y="127"/>
      <point x="544" y="132"/>
    </contour>
  </outline>
</glyph>
<glyph name="y" format="1">
  <advance width="491"/>
  <unicode hex="0079"/>
  <outline>
    <contour>
      <point x="278" y="136" type="curve" smooth="yes"/>
      <point x="327" y="269" type="line" smooth="yes"/>
      <point x="334" y="287"/>
      <point x="350" y="326"/>
      <point x="350" y="345" type="curve" smooth="yes"/>
      <point x="350" y="362"/>
      <point x="347" y="369"/>
      <point x="301" y="369" type="curve"/>
      <point x="291" y="375"/>
      <point x="280" y="414"/>
      <point x="304" y="418" type="curve" smooth="yes"/>
      <point x="308" y="419"/>
      <point x="311" y="418"/>
      <point x="314" y="418" type="curve" smooth="yes"/>
      <point x="372" y="418"/>
      <point x="409" y="419"/>
      <point x="461" y="419" type="curve" smooth="yes"/>
      <point x="486" y="419"/>
      <point x="489" y="393"/>
      <point x="482" y="378" type="curve" smooth="yes"/>
      <point x="479" y="371"/>
      <point x="473" y="370"/>
      <point x="469" y="369" type="curve" smooth="yes"/>
      <point x="437" y="367"/>
      <point x="421" y="356"/>
      <point x="382" y="250" type="curve" smooth="yes"/>
      <point x="263" y="-74" type="line" smooth="yes"/>
      <point x="246" y="-120"/>
      <point x="233" y="-152"/>
      <point x="222" y="-178" type="curve" smooth="yes"/>
      <point x="210" y="-204"/>
      <point x="199" y="-222"/>
      <point x="185" y="-240" type="curve" smooth="yes"/>
      <point x="172" y="-256"/>
      <point x="147" y="-264"/>
      <point x="128" y="-264" type="curve" smooth="yes"/>
      <point x="98" y="-264"/>
      <point x="71" y="-236"/>
      <point x="71" y="-207" type="curve" smooth="yes"/>
      <point x="71" y="-177"/>
      <point x="98" y="-165"/>
      <point x="128" y="-156" type="curve" smooth="yes"/>
      <point x="201" y="-137"/>
      <point x="207" y="-67"/>
      <point x="219" y="-5" type="curve"/>
      <point x="99" y="284" type="line" smooth="yes"/>
      <point x="65" y="366"/>
      <point x="63" y="366"/>
      <point x="22" y="370" type="curve" smooth="yes"/>
      <point x="6" y="373"/>
      <point x="-3" y="420"/>
      <point x="31" y="419" type="curve" smooth="yes"/>
      <point x="33" y="419"/>
      <point x="41" y="419"/>
      <point x="44" y="419" type="curve" smooth="yes"/>
      <point x="93" y="419"/>
      <point x="180" y="419"/>
      <point x="208" y="419" type="curve" smooth="yes"/>
      <point x="244" y="420"/>
      <point x="234" y="373"/>
      <point x="217" y="369" type="curve" smooth="yes"/>
      <point x="210" y="369"/>
      <point x="196" y="369"/>
      <point x="187" y="366" type="curve" smooth="yes"/>
      <point x="169" y="361"/>
      <point x="184" y="336"/>
      <point x="188" y="326" type="curve" smooth="yes"/>
      <point x="219" y="259"/>
      <point x="240" y="196"/>
      <point x="267" y="128" type="curve" smooth="yes"/>
      <point x="270" y="121"/>
      <point x="274" y="125"/>
    </contour>
  </outline>
</glyph>
<glyph name="guillemotleft" format="1">
  <advance width="371"/>
  <unicode hex="00AB"/>
  <outline>
    <contour>
      <point x="271" y="232" type="line"/>
      <point x="331" y="70" type="line" smooth="yes"/>
      <point x="334" y="61"/>
      <point x="334" y="48"/>
      <point x="320" y="48" type="curve" smooth="yes"/>
      <point x="295" y="48"/>
      <point x="299" y="48"/>
      <point x="295" y="48" type="curve" smooth="yes"/>
      <point x="288" y="48"/>
      <point x="286" y="54"/>
      <point x="283" y="59" type="curve" smooth="yes"/>
      <point x="172" y="221" type="line" smooth="yes"/>
      <point x="165" y="231"/>
      <point x="171" y="242"/>
      <point x="178" y="252" type="curve" smooth="yes"/>
      <point x="282" y="400" type="line"/>
      <point x="286" y="407" type="line" smooth="yes"/>
      <point x="290" y="413"/>
      <point x="292" y="412"/>
      <point x="299" y="412" type="curve" smooth="yes"/>
      <point x="322" y="412" type="line" smooth="yes"/>
      <point x="336" y="412"/>
      <point x="336" y="404"/>
      <point x="332" y="394" type="curve" smooth="yes"/>
    </contour>
    <contour>
      <point x="131" y="232" type="line"/>
      <point x="222" y="54" type="line" smooth="yes"/>
      <point x="229" y="40"/>
      <point x="226" y="32"/>
      <point x="213" y="32" type="curve" smooth="yes"/>
      <point x="191" y="32" type="line" smooth="yes"/>
      <point x="182" y="32"/>
      <point x="179" y="35"/>
      <point x="172" y="44" type="curve" smooth="yes"/>
      <point x="33" y="218" type="line" smooth="yes"/>
      <point x="24" y="230"/>
      <point x="32" y="245"/>
      <point x="37" y="251" type="curve" smooth="yes"/>
      <point x="174" y="420" type="line"/>
      <point x="178" y="425" type="line" smooth="yes"/>
      <point x="180" y="428"/>
      <point x="182" y="429"/>
      <point x="186" y="429" type="curve" smooth="yes"/>
      <point x="190" y="429"/>
      <point x="185" y="429"/>
      <point x="212" y="429" type="curve" smooth="yes"/>
      <point x="227" y="429"/>
      <point x="230" y="423"/>
      <point x="226" y="415" type="curve" smooth="yes"/>
    </contour>
  </outline>
</glyph>
<glyph name="logicalnot" format="1">
  <advance width="698"/>
  <unicode hex="00AC"/>
  <outline>
    <contour>
      <point x="549" y="182" type="line"/>
      <point x="549" y="414" type="line"/>
      <point x="66" y="414" type="line"/>
      <point x="66" y="497" type="line"/>
      <point x="635" y="497" type="line"/>
      <point x="635" y="182" type="line"/>
    </contour>
  </outline>
</glyph>
<glyph name="threesuperior" format="1">
  <advance width="300"/>
  <unicode hex="00B3"/>
  <outline>
    <contour>
      <point x="115" y="294" type="curve" smooth="yes"/>
      <point x="74" y="294"/>
      <point x="9" y="309"/>
      <point x="9" y="348" type="curve" smooth="yes"/>
      <point x="9" y="371"/>
      <point x="29" y="386"/>
      <point x="50" y="386" type="curve" smooth="yes"/>
      <point x="85" y="386"/>
      <point x="106" y="348"/>
      <point x="135" y="348" type="curve" smooth="yes"/>
      <point x="163" y="348"/>
      <point x="192" y="376"/>
      <point x="192" y="414" type="curve" smooth="yes"/>
      <point x="192" y="442"/>
      <point x="173" y="460"/>
      <point x="156" y="460" type="curve" smooth="yes"/>
      <point x="147" y="460"/>
      <point x="140" y="459"/>
      <point x="128" y="449" type="curve" smooth="yes"/>
      <point x="119" y="444"/>
      <point x="99" y="440"/>
      <point x="87" y="458" type="curve" smooth="yes"/>
      <point x="81" y="468"/>
      <point x="86" y="485"/>
      <point x="95" y="491" type="curve" smooth="yes"/>
      <point x="145" y="522"/>
      <point x="164" y="547"/>
      <point x="164" y="558" type="curve" smooth="yes"/>
      <point x="164" y="569"/>
      <point x="153" y="581"/>
      <point x="133" y="581" type="curve" smooth="yes"/>
      <point x="113" y="581"/>
      <point x="91" y="569"/>
      <point x="74" y="538" type="curve"/>
      <point x="50" y="507"/>
      <point x="19" y="545"/>
      <point x="23" y="559" type="curve" smooth="yes"/>
      <point x="49" y="614"/>
      <point x="96" y="646"/>
      <point x="152" y="646" type="curve" smooth="yes"/>
      <point x="200" y="646"/>
      <point x="247" y="620"/>
      <point x="247" y="573" type="curve" smooth="yes"/>
      <point x="247" y="551"/>
      <point x="237" y="532"/>
      <point x="219" y="516" type="curve"/>
      <point x="257" y="501"/>
      <point x="281" y="469"/>
      <point x="281" y="427" type="curve" smooth="yes"/>
      <point x="281" y="352"/>
      <point x="198" y="294"/>
    </contour>
  </outline>
</glyph>
<glyph name="periodcentered" format="1">
  <advance width="257"/>
  <unicode hex="00B7"/>
  <outline>
    <contour>
      <point x="129" y="287" type="curve" smooth="yes"/>
      <point x="97" y="287"/>
      <point x="69" y="314"/>
      <point x="69" y="343" type="curve" smooth="yes"/>
      <point x="69" y="373"/>
      <point x="97" y="399"/>
      <point x="129" y="399" type="curve" smooth="yes"/>
      <point x="162" y="399"/>
      <point x="188" y="373"/>
      <point x="188" y="343" type="curve" smooth="yes"/>
      <point x="188" y="314"/>
      <point x="162" y="287"/>
    </contour>
  </outline>
</glyph>
<glyph name="guillemotright" format="1">
  <advance width="371"/>
  <unicode hex="00BB"/>
  <outline>
    <contour>
      <point x="334" y="211" type="curve" smooth="yes"/>
      <point x="198" y="42" type="line" smooth="yes"/>
      <point x="192" y="35"/>
      <point x="192" y="33"/>
      <point x="182" y="33" type="curve" smooth="yes"/>
      <point x="159" y="33" type="line" smooth="yes"/>
      <point x="145" y="33"/>
      <point x="142" y="39"/>
      <point x="146" y="47" type="curve" smooth="yes"/>
      <point x="241" y="231" type="line"/>
      <point x="150" y="408" type="line" smooth="yes"/>
      <point x="143" y="422"/>
      <point x="146" y="430"/>
      <point x="159" y="430" type="curve" smooth="yes"/>
      <point x="181" y="430" type="line" smooth="yes"/>
      <point x="189" y="430"/>
      <point x="193" y="427"/>
      <point x="200" y="418" type="curve" smooth="yes"/>
      <point x="339" y="244" type="line" smooth="yes"/>
      <point x="348" y="233"/>
      <point x="340" y="217"/>
    </contour>
    <contour>
      <point x="194" y="211" type="curve" smooth="yes"/>
      <point x="90" y="62" type="line" smooth="yes"/>
      <point x="83" y="52"/>
      <point x="84" y="50"/>
      <point x="73" y="50" type="curve" smooth="yes"/>
      <point x="50" y="50" type="line" smooth="yes"/>
      <point x="36" y="50"/>
      <point x="35" y="58"/>
      <point x="39" y="69" type="curve" smooth="yes"/>
      <point x="101" y="230" type="line"/>
      <point x="41" y="392" type="line" smooth="yes"/>
      <point x="37" y="401"/>
      <point x="38" y="414"/>
      <point x="51" y="414" type="curve" smooth="yes"/>
      <point x="73" y="414" type="line"/>
      <point x="76" y="414" type="line" smooth="yes"/>
      <point x="83" y="414"/>
      <point x="86" y="408"/>
      <point x="89" y="403" type="curve" smooth="yes"/>
      <point x="199" y="242" type="line" smooth="yes"/>
      <point x="207" y="231"/>
      <point x="200" y="220"/>
    </contour>
  </outline>
</glyph>
<glyph name="Igrave" format="1">
  <advance width="363"/>
  <unicode hex="00CC"/>
  <outline>
    <contour>
      <point x="196" y="710" type="curve" smooth="yes"/>
      <point x="164" y="751"/>
      <point x="108" y="819"/>
      <point x="67" y="864" type="curve" smooth="yes"/>
      <point x="51" y="882"/>
      <point x="75" y="900"/>
      <point x="88" y="900" type="curve" smooth="yes"/>
      <point x="162" y="901" type="line" smooth="yes"/>
      <point x="171" y="901"/>
      <point x="181" y="901"/>
      <point x="190" y="887" type="curve" smooth="yes"/>
      <point x="206" y="842"/>
      <point x="228" y="768"/>
      <point x="238" y="725" type="curve" smooth="yes"/>
      <point x="240" y="699"/>
      <point x="208" y="699"/>
    </contour>
    <contour>
      <point x="308" y="604" type="curve" smooth="yes"/>
      <point x="303" y="604"/>
      <point x="299" y="603"/>
      <point x="294" y="603" type="curve" smooth="yes"/>
      <point x="244" y="602"/>
      <point x="238" y="600"/>
      <point x="238" y="512" type="curve" smooth="yes"/>
      <point x="238" y="107" type="line" smooth="yes"/>
      <point x="238" y="78"/>
      <point x="243" y="66"/>
      <point x="252" y="61" type="curve" smooth="yes"/>
      <point x="267" y="50"/>
      <point x="294" y="56"/>
      <point x="312" y="51" type="curve"/>
      <point x="329" y="40"/>
      <point x="328" y="-4"/>
      <point x="307" y="-3" type="curve" smooth="yes"/>
      <point x="246" y="-1"/>
      <point x="129" y="-1"/>
      <point x="69" y="-3" type="curve" smooth="yes"/>
      <point x="56" y="-3"/>
      <point x="47" y="8"/>
      <point x="47" y="22" type="curve" smooth="yes"/>
      <point x="47" y="32"/>
      <point x="54" y="50"/>
      <point x="65" y="51" type="curve" smooth="yes"/>
      <point x="121" y="56"/>
      <point x="122" y="60"/>
      <point x="123" y="107" type="curve" smooth="yes"/>
      <point x="124" y="141" type="line"/>
      <point x="124" y="512" type="line"/>
      <point x="123" y="546" type="line" smooth="yes"/>
      <point x="122" y="592"/>
      <point x="118" y="599"/>
      <point x="71" y="605" type="curve" smooth="yes"/>
      <point x="40" y="608"/>
      <point x="45" y="657"/>
      <point x="71" y="656" type="curve" smooth="yes"/>
      <point x="183" y="655"/>
      <point x="174" y="651"/>
      <point x="296" y="656" type="curve" smooth="yes"/>
      <point x="306" y="657"/>
      <point x="320" y="655"/>
      <point x="322" y="636" type="curve" smooth="yes"/>
      <point x="323" y="624"/>
      <point x="318" y="605"/>
    </contour>
  </outline>
</glyph>
<glyph name="Eth" format="1">
  <advance width="795"/>
  <unicode hex="00D0"/>
  <outline>
    <contour>
      <point x="502" y="16" type="curve" smooth="yes"/>
      <point x="436" y="-3"/>
      <point x="424" y="-5"/>
      <point x="287" y="-5" type="curve" smooth="yes"/>
      <point x="234" y="-5"/>
      <point x="109" y="-4"/>
      <point x="37" y="-6" type="curve" smooth="yes"/>
      <point x="28" y="-7"/>
      <point x="14" y="-1"/>
      <point x="14" y="13" type="curve" smooth="yes"/>
      <point x="14" y="21"/>
      <point x="13" y="33"/>
      <point x="17" y="40" type="curve" smooth="yes"/>
      <point x="27" y="58"/>
      <point x="35" y="52"/>
      <point x="50" y="52" type="curve" smooth="yes"/>
      <point x="104" y="52"/>
      <point x="114" y="59"/>
      <point x="115" y="105" type="curve" smooth="yes"/>
      <point x="117" y="164"/>
      <point x="116" y="226"/>
      <point x="116" y="285" type="curve" smooth="yes"/>
      <point x="116" y="290"/>
      <point x="113" y="295"/>
      <point x="106" y="295" type="curve" smooth="yes"/>
      <point x="22" y="294" type="line" smooth="yes"/>
      <point x="7" y="296"/>
      <point x="6" y="307"/>
      <point x="6" y="320" type="curve" smooth="yes"/>
      <point x="6" y="354" type="line"/>
      <point x="6" y="354"/>
      <point x="1" y="379"/>
      <point x="31" y="379" type="curve" smooth="yes"/>
      <point x="106" y="379" type="line" smooth="yes"/>
      <point x="110" y="379"/>
      <point x="116" y="388"/>
      <point x="116" y="397" type="curve" smooth="yes"/>
      <point x="116" y="515" type="line" smooth="yes"/>
      <point x="116" y="603"/>
      <point x="111" y="604"/>
      <point x="40" y="604" type="curve" smooth="yes"/>
      <point x="21" y="604"/>
      <point x="15" y="618"/>
      <point x="15" y="632" type="curve" smooth="yes"/>
      <point x="15" y="650"/>
      <point x="23" y="658"/>
      <point x="39" y="661" type="curve" smooth="yes"/>
      <point x="120" y="664" type="line" smooth="yes"/>
      <point x="194" y="667"/>
      <point x="269" y="667"/>
      <point x="344" y="667" type="curve" smooth="yes"/>
      <point x="474" y="667"/>
      <point x="559" y="648"/>
      <point x="632" y="595" type="curve" smooth="yes"/>
      <point x="712" y="537"/>
      <point x="762" y="450"/>
      <point x="762" y="348" type="curve" smooth="yes"/>
      <point x="762" y="196"/>
      <point x="650" y="58"/>
    </contour>
    <contour>
      <point x="529" y="558" type="curve" smooth="yes"/>
      <point x="488" y="589"/>
      <point x="448" y="602"/>
      <point x="371" y="610" type="curve" smooth="yes"/>
      <point x="336" y="613"/>
      <point x="314" y="615"/>
      <point x="278" y="615" type="curve" smooth="yes"/>
      <point x="268" y="615"/>
      <point x="258" y="617"/>
      <point x="247" y="616" type="curve" smooth="yes"/>
      <point x="238" y="615"/>
      <point x="233" y="611"/>
      <point x="233" y="602" type="curve" smooth="yes"/>
      <point x="233" y="395" type="line" smooth="yes"/>
      <point x="233" y="378"/>
      <point x="239" y="379"/>
      <point x="263" y="378" type="curve" smooth="yes"/>
      <point x="292" y="377"/>
      <point x="376" y="380"/>
      <point x="382" y="380" type="curve" smooth="yes"/>
      <point x="406" y="380"/>
      <point x="409" y="365"/>
      <point x="409" y="352" type="curve" smooth="yes"/>
      <point x="409" y="315" type="line"/>
      <point x="405" y="297"/>
      <point x="401" y="296"/>
      <point x="383" y="296" type="curve" smooth="yes"/>
      <point x="242" y="295" type="line" smooth="yes"/>
      <point x="238" y="295"/>
      <point x="233" y="291"/>
      <point x="233" y="281" type="curve" smooth="yes"/>
      <point x="233" y="106" type="line" smooth="yes"/>
      <point x="233" y="52"/>
      <point x="234" y="47"/>
      <point x="303" y="47" type="curve" smooth="yes"/>
      <point x="396" y="47"/>
      <point x="428" y="51"/>
      <point x="473" y="72" type="curve" smooth="yes"/>
      <point x="566" y="114"/>
      <point x="627" y="216"/>
      <point x="627" y="332" type="curve" smooth="yes"/>
      <point x="627" y="428"/>
      <point x="589" y="512"/>
    </contour>
  </outline>
</glyph>
<glyph name="Otilde" format="1">
  <advance width="827"/>
  <unicode hex="00D5"/>
  <outline>
    <contour>
      <point x="473" y="713" type="curve" smooth="yes"/>
      <point x="444" y="713"/>
      <point x="411" y="726"/>
      <point x="374" y="750" type="curve" smooth="yes"/>
      <point x="337" y="775"/>
      <point x="331" y="777"/>
      <point x="323" y="777" type="curve" smooth="yes"/>
      <point x="312" y="777"/>
      <point x="305" y="774"/>
      <point x="297" y="743" type="curve" smooth="yes"/>
      <point x="297" y="737"/>
      <point x="295" y="731"/>
      <point x="294" y="725" type="curve" smooth="yes"/>
      <point x="288" y="713"/>
      <point x="252" y="700"/>
      <point x="247" y="727" type="curve"/>
      <point x="251" y="809"/>
      <point x="285" y="862"/>
      <point x="352" y="862" type="curve" smooth="yes"/>
      <point x="385" y="862"/>
      <point x="409" y="852"/>
      <point x="453" y="823" type="curve" smooth="yes"/>
      <point x="483" y="804"/>
      <point x="496" y="800"/>
      <point x="504" y="800" type="curve" smooth="yes"/>
      <point x="541" y="800"/>
      <point x="513" y="865"/>
      <point x="555" y="866" type="curve" smooth="yes"/>
      <point x="561" y="867"/>
      <point x="576" y="865"/>
      <point x="577" y="853" type="curve" smooth="yes"/>
      <point x="579" y="846"/>
      <point x="579" y="842"/>
      <point x="579" y="839" type="curve" smooth="yes"/>
      <point x="579" y="770"/>
      <point x="537" y="713"/>
    </contour>
    <contour>
      <point x="413" y="-19" type="curve" smooth="yes"/>
      <point x="202" y="-19"/>
      <point x="45" y="125"/>
      <point x="45" y="313" type="curve" smooth="yes"/>
      <point x="45" y="517"/>
      <point x="200" y="669"/>
      <point x="415" y="669" type="curve" smooth="yes"/>
      <point x="626" y="669"/>
      <point x="777" y="529"/>
      <point x="777" y="340" type="curve" smooth="yes"/>
      <point x="777" y="138"/>
      <point x="622" y="-19"/>
    </contour>
    <contour>
      <point x="387" y="611" type="curve" smooth="yes"/>
      <point x="260" y="611"/>
      <point x="176" y="503"/>
      <point x="176" y="339" type="curve" smooth="yes"/>
      <point x="176" y="166"/>
      <point x="282" y="40"/>
      <point x="430" y="40" type="curve" smooth="yes"/>
      <point x="594" y="40"/>
      <point x="646" y="164"/>
      <point x="646" y="310" type="curve" smooth="yes"/>
      <point x="646" y="488"/>
      <point x="542" y="611"/>
    </contour>
  </outline>
</glyph>
<glyph name="Ugrave" format="1">
  <advance width="815"/>
  <unicode hex="00D9"/>
  <outline>
    <contour>
      <point x="436" y="690" type="curve" smooth="yes"/>
      <point x="404" y="731"/>
      <point x="346" y="798"/>
      <point x="303" y="844" type="curve" smooth="yes"/>
      <point x="286" y="862"/>
      <point x="311" y="880"/>
      <point x="325" y="880" type="curve" smooth="yes"/>
      <point x="401" y="881" type="line" smooth="yes"/>
      <point x="409" y="881"/>
      <point x="421" y="881"/>
      <point x="429" y="867" type="curve" smooth="yes"/>
      <point x="446" y="822"/>
      <point x="468" y="748"/>
      <point x="479" y="705" type="curve"/>
      <point x="479" y="674"/>
      <point x="443" y="682"/>
    </contour>
    <contour>
      <point x="780" y="604" type="curve" smooth="yes"/>
      <point x="711" y="602"/>
      <point x="698" y="591"/>
      <point x="698" y="488" type="curve" smooth="yes"/>
      <point x="698" y="308" type="line" smooth="yes"/>
      <point x="698" y="206"/>
      <point x="697" y="131"/>
      <point x="612" y="56" type="curve" smooth="yes"/>
      <point x="554" y="5"/>
      <point x="501" y="-19"/>
      <point x="402" y="-19" type="curve" smooth="yes"/>
      <point x="264" y="-19"/>
      <point x="180" y="35"/>
      <point x="135" y="134" type="curve" smooth="yes"/>
      <point x="114" y="180"/>
      <point x="112" y="203"/>
      <point x="112" y="298" type="curve" smooth="yes"/>
      <point x="112" y="552" type="line" smooth="yes"/>
      <point x="112" y="597"/>
      <point x="109" y="603"/>
      <point x="37" y="603" type="curve" smooth="yes"/>
      <point x="24" y="604"/>
      <point x="4" y="653"/>
      <point x="37" y="655" type="curve" smooth="yes"/>
      <point x="64" y="657"/>
      <point x="222" y="657"/>
      <point x="304" y="655" type="curve" smooth="yes"/>
      <point x="332" y="655"/>
      <point x="326" y="603"/>
      <point x="303" y="603" type="curve" smooth="yes"/>
      <point x="294" y="603" type="line" smooth="yes"/>
      <point x="241" y="603"/>
      <point x="230" y="593"/>
      <point x="229" y="546" type="curve" smooth="yes"/>
      <point x="229" y="531"/>
      <point x="228" y="518"/>
      <point x="228" y="503" type="curve" smooth="yes"/>
      <point x="228" y="313" type="line" smooth="yes"/>
      <point x="228" y="172"/>
      <point x="270" y="66"/>
      <point x="425" y="66" type="curve" smooth="yes"/>
      <point x="526" y="66"/>
      <point x="579" y="107"/>
      <point x="605" y="176" type="curve" smooth="yes"/>
      <point x="621" y="218"/>
      <point x="620" y="263"/>
      <point x="620" y="307" type="curve" smooth="yes"/>
      <point x="620" y="484" type="line" smooth="yes"/>
      <point x="620" y="590"/>
      <point x="610" y="601"/>
      <point x="540" y="602" type="curve"/>
      <point x="533" y="605" type="line" smooth="yes"/>
      <point x="518" y="609"/>
      <point x="511" y="655"/>
      <point x="535" y="655" type="curve" smooth="yes"/>
      <point x="585" y="656"/>
      <point x="718" y="656"/>
      <point x="779" y="655" type="curve" smooth="yes"/>
      <point x="792" y="655"/>
      <point x="798" y="641"/>
      <point x="798" y="630" type="curve" smooth="yes"/>
      <point x="798" y="623"/>
      <point x="795" y="607"/>
    </contour>
  </outline>
</glyph>
<glyph name="Uacute" format="1">
  <advance width="815"/>
  <unicode hex="00DA"/>
  <outline>
    <contour>
      <point x="536" y="859" type="curve"/>
      <point x="535" y="858" type="line" smooth="yes"/>
      <point x="534" y="855"/>
      <point x="391" y="685"/>
      <point x="391" y="685" type="curve" smooth="yes"/>
      <point x="381" y="673"/>
      <point x="340" y="676"/>
      <point x="349" y="704" type="curve" smooth="yes"/>
      <point x="397" y="864" type="line" smooth="yes"/>
      <point x="401" y="877"/>
      <point x="414" y="884"/>
      <point x="425" y="884" type="curve" smooth="yes"/>
      <point x="512" y="885" type="line" smooth="yes"/>
      <point x="528" y="885"/>
      <point x="541" y="876"/>
    </contour>
    <contour>
      <point x="780" y="604" type="curve" smooth="yes"/>
      <point x="711" y="602"/>
      <point x="698" y="591"/>
      <point x="698" y="488" type="curve" smooth="yes"/>
      <point x="698" y="308" type="line" smooth="yes"/>
      <point x="698" y="206"/>
      <point x="697" y="131"/>
      <point x="612" y="56" type="curve" smooth="yes"/>
      <point x="554" y="5"/>
      <point x="501" y="-19"/>
      <point x="402" y="-19" type="curve" smooth="yes"/>
      <point x="264" y="-19"/>
      <point x="180" y="35"/>
      <point x="135" y="134" type="curve" smooth="yes"/>
      <point x="114" y="180"/>
      <point x="112" y="203"/>
      <point x="112" y="298" type="curve" smooth="yes"/>
      <point x="112" y="552" type="line" smooth="yes"/>
      <point x="112" y="597"/>
      <point x="109" y="603"/>
      <point x="37" y="603" type="curve" smooth="yes"/>
      <point x="24" y="604"/>
      <point x="4" y="653"/>
      <point x="37" y="655" type="curve" smooth="yes"/>
      <point x="64" y="657"/>
      <point x="222" y="657"/>
      <point x="304" y="655" type="curve" smooth="yes"/>
      <point x="332" y="655"/>
      <point x="326" y="603"/>
      <point x="303" y="603" type="curve" smooth="yes"/>
      <point x="294" y="603" type="line" smooth="yes"/>
      <point x="241" y="603"/>
      <point x="230" y="593"/>
      <point x="229" y="546" type="curve" smooth="yes"/>
      <point x="229" y="532"/>
      <point x="228" y="518"/>
      <point x="228" y="503" type="curve" smooth="yes"/>
      <point x="228" y="313" type="line" smooth="yes"/>
      <point x="228" y="172"/>
      <point x="270" y="66"/>
      <point x="425" y="66" type="curve" smooth="yes"/>
      <point x="526" y="66"/>
      <point x="579" y="107"/>
      <point x="605" y="176" type="curve" smooth="yes"/>
      <point x="621" y="218"/>
      <point x="620" y="263"/>
      <point x="620" y="307" type="curve" smooth="yes"/>
      <point x="620" y="484" type="line" smooth="yes"/>
      <point x="620" y="590"/>
      <point x="610" y="601"/>
      <point x="540" y="603" type="curve"/>
      <point x="533" y="605" type="line" smooth="yes"/>
      <point x="518" y="609"/>
      <point x="511" y="655"/>
      <point x="535" y="655" type="curve" smooth="yes"/>
      <point x="585" y="656"/>
      <point x="718" y="656"/>
      <point x="779" y="655" type="curve" smooth="yes"/>
      <point x="792" y="655"/>
      <point x="798" y="641"/>
      <point x="798" y="630" type="curve" smooth="yes"/>
      <point x="798" y="623"/>
      <point x="795" y="607"/>
    </contour>
  </outline>
</glyph>
<glyph name="Ucircumflex" format="1">
  <advance width="815"/>
  <unicode hex="00DB"/>
  <outline>
    <contour>
      <point x="554" y="715" type="curve" smooth="yes"/>
      <point x="545" y="713"/>
      <point x="532" y="713"/>
      <point x="524" y="719" type="curve" smooth="yes"/>
      <point x="411" y="815" type="line"/>
      <point x="305" y="719" type="line" smooth="yes"/>
      <point x="289" y="705"/>
      <point x="254" y="718"/>
      <point x="266" y="738" type="curve" smooth="yes"/>
      <point x="353" y="886" type="line" smooth="yes"/>
      <point x="357" y="894"/>
      <point x="365" y="898"/>
      <point x="372" y="901" type="curve" smooth="yes"/>
      <point x="381" y="902"/>
      <point x="432" y="903"/>
      <point x="446" y="902" type="curve" smooth="yes"/>
      <point x="460" y="901"/>
      <point x="464" y="897"/>
      <point x="470" y="887" type="curve" smooth="yes"/>
      <point x="561" y="743" type="line" smooth="yes"/>
      <point x="566" y="735"/>
      <point x="569" y="718"/>
    </contour>
    <contour>
      <point x="780" y="604" type="curve" smooth="yes"/>
      <point x="711" y="602"/>
      <point x="698" y="590"/>
      <point x="698" y="488" type="curve" smooth="yes"/>
      <point x="698" y="308" type="line" smooth="yes"/>
      <point x="698" y="206"/>
      <point x="697" y="131"/>
      <point x="612" y="56" type="curve" smooth="yes"/>
      <point x="554" y="5"/>
      <point x="501" y="-19"/>
      <point x="402" y="-19" type="curve" smooth="yes"/>
      <point x="264" y="-19"/>
      <point x="180" y="35"/>
      <point x="135" y="134" type="curve" smooth="yes"/>
      <point x="114" y="180"/>
      <point x="112" y="203"/>
      <point x="112" y="298" type="curve" smooth="yes"/>
      <point x="112" y="552" type="line" smooth="yes"/>
      <point x="112" y="597"/>
      <point x="109" y="602"/>
      <point x="37" y="603" type="curve" smooth="yes"/>
      <point x="24" y="603"/>
      <point x="4" y="653"/>
      <point x="37" y="655" type="curve" smooth="yes"/>
      <point x="64" y="657"/>
      <point x="222" y="657"/>
      <point x="304" y="655" type="curve" smooth="yes"/>
      <point x="332" y="655"/>
      <point x="326" y="603"/>
      <point x="303" y="603" type="curve" smooth="yes"/>
      <point x="294" y="603" type="line" smooth="yes"/>
      <point x="241" y="603"/>
      <point x="230" y="593"/>
      <point x="229" y="546" type="curve" smooth="yes"/>
      <point x="229" y="531"/>
      <point x="228" y="518"/>
      <point x="228" y="503" type="curve" smooth="yes"/>
      <point x="228" y="313" type="line" smooth="yes"/>
      <point x="228" y="171"/>
      <point x="270" y="66"/>
      <point x="425" y="66" type="curve" smooth="yes"/>
      <point x="526" y="66"/>
      <point x="579" y="107"/>
      <point x="605" y="176" type="curve" smooth="yes"/>
      <point x="621" y="218"/>
      <point x="620" y="262"/>
      <point x="620" y="307" type="curve" smooth="yes"/>
      <point x="620" y="484" type="line" smooth="yes"/>
      <point x="620" y="590"/>
      <point x="610" y="601"/>
      <point x="540" y="602" type="curve"/>
      <point x="533" y="604" type="line" smooth="yes"/>
      <point x="518" y="609"/>
      <point x="511" y="655"/>
      <point x="535" y="655" type="curve" smooth="yes"/>
      <point x="585" y="656"/>
      <point x="718" y="656"/>
      <point x="779" y="655" type="curve" smooth="yes"/>
      <point x="792" y="655"/>
      <point x="798" y="641"/>
      <point x="798" y="630" type="curve" smooth="yes"/>
      <point x="798" y="623"/>
      <point x="795" y="607"/>
    </contour>
  </outline>
</glyph>
<glyph name="germandbls" format="1">
  <advance width="545"/>
  <unicode hex="00DF"/>
  <outline>
    <contour>
      <point x="321" y="-17" type="curve" smooth="yes"/>
      <point x="290" y="-17"/>
      <point x="258" y="-2"/>
      <point x="258" y="31" type="curve" smooth="yes"/>
      <point x="258" y="54"/>
      <point x="274" y="75"/>
      <point x="298" y="75" type="curve" smooth="yes"/>
      <point x="313" y="75"/>
      <point x="324" y="68"/>
      <point x="336" y="61" type="curve" smooth="yes"/>
      <point x="353" y="54"/>
      <point x="357" y="52"/>
      <point x="359" y="52" type="curve" smooth="yes"/>
      <point x="372" y="52"/>
      <point x="397" y="91"/>
      <point x="397" y="177" type="curve" smooth="yes"/>
      <point x="397" y="281"/>
      <point x="361" y="339"/>
      <point x="304" y="351" type="curve" smooth="yes"/>
      <point x="290" y="354"/>
      <point x="272" y="355"/>
      <point x="255" y="355" type="curve" smooth="yes"/>
      <point x="246" y="355"/>
      <point x="238" y="357"/>
      <point x="232" y="362" type="curve" smooth="yes"/>
      <point x="228" y="368"/>
      <point x="229" y="381"/>
      <point x="229" y="386" type="curve" smooth="yes"/>
      <point x="229" y="399"/>
      <point x="232" y="401"/>
      <point x="249" y="403" type="curve" smooth="yes"/>
      <point x="330" y="414"/>
      <point x="374" y="462"/>
      <point x="374" y="537" type="curve" smooth="yes"/>
      <point x="374" y="612"/>
      <point x="334" y="656"/>
      <point x="276" y="656" type="curve" smooth="yes"/>
      <point x="246" y="656"/>
      <point x="223" y="643"/>
      <point x="207" y="618" type="curve" smooth="yes"/>
      <point x="188" y="589"/>
      <point x="181" y="561"/>
      <point x="181" y="494" type="curve" smooth="yes"/>
      <point x="181" y="431" type="line"/>
      <point x="181" y="138" type="line"/>
      <point x="181" y="94" type="line" smooth="yes"/>
      <point x="181" y="53"/>
      <point x="182" y="50"/>
      <point x="221" y="50" type="curve" smooth="yes"/>
      <point x="239" y="47"/>
      <point x="245" y="47"/>
      <point x="245" y="26" type="curve" smooth="yes"/>
      <point x="245" y="23"/>
      <point x="246" y="11"/>
      <point x="244" y="5" type="curve" smooth="yes"/>
      <point x="240" y="0"/>
      <point x="235" y="-6"/>
      <point x="225" y="-4" type="curve" smooth="yes"/>
      <point x="167" y="-2"/>
      <point x="84" y="-2"/>
      <point x="37" y="-4" type="curve" smooth="yes"/>
      <point x="17" y="-5"/>
      <point x="14" y="8"/>
      <point x="14" y="20" type="curve" smooth="yes"/>
      <point x="14" y="33"/>
      <point x="14" y="47"/>
      <point x="35" y="48" type="curve" smooth="yes"/>
      <point x="57" y="50"/>
      <point x="68" y="50"/>
      <point x="73" y="56" type="curve" smooth="yes"/>
      <point x="79" y="64"/>
      <point x="78" y="92"/>
      <point x="78" y="100" type="curve" smooth="yes"/>
      <point x="78" y="138" type="line"/>
      <point x="78" y="385" type="line" smooth="yes"/>
      <point x="78" y="537"/>
      <point x="86" y="580"/>
      <point x="131" y="637" type="curve" smooth="yes"/>
      <point x="169" y="687"/>
      <point x="223" y="711"/>
      <point x="287" y="711" type="curve" smooth="yes"/>
      <point x="391" y="711"/>
      <point x="476" y="641"/>
      <point x="476" y="545" type="curve" smooth="yes"/>
      <point x="476" y="467"/>
      <point x="425" y="429"/>
      <point x="366" y="392" type="curve" smooth="yes"/>
      <point x="361" y="388"/>
      <point x="362" y="385"/>
      <point x="370" y="382" type="curve" smooth="yes"/>
      <point x="453" y="349"/>
      <point x="509" y="281"/>
      <point x="509" y="190" type="curve" smooth="yes"/>
      <point x="509" y="61"/>
      <point x="423" y="-17"/>
    </contour>
  </outline>
</glyph>
<glyph name="aacute" format="1">
  <advance width="421"/>
  <unicode hex="00E1"/>
  <outline>
    <contour>
      <point x="331" y="638" type="line" smooth="yes"/>
      <point x="330" y="635"/>
      <point x="330" y="633"/>
      <point x="328" y="631" type="curve" smooth="yes"/>
      <point x="189" y="464" type="line" smooth="yes"/>
      <point x="179" y="452"/>
      <point x="138" y="454"/>
      <point x="147" y="482" type="curve" smooth="yes"/>
      <point x="194" y="641" type="line" smooth="yes"/>
      <point x="198" y="654"/>
      <point x="211" y="661"/>
      <point x="222" y="661" type="curve" smooth="yes"/>
      <point x="308" y="661" type="line" smooth="yes"/>
      <point x="318" y="661"/>
      <point x="334" y="657"/>
      <point x="332" y="639" type="curve"/>
    </contour>
    <contour>
      <point x="233" y="36" type="curve"/>
      <point x="233" y="35" type="line"/>
      <point x="190" y="1"/>
      <point x="168" y="-12"/>
      <point x="128" y="-12" type="curve" smooth="yes"/>
      <point x="67" y="-12"/>
      <point x="23" y="27"/>
      <point x="23" y="84" type="curve" smooth="yes"/>
      <point x="23" y="140"/>
      <point x="65" y="173"/>
      <point x="134" y="191" type="curve" smooth="yes"/>
      <point x="165" y="199"/>
      <point x="193" y="212"/>
      <point x="222" y="225" type="curve" smooth="yes"/>
      <point x="225" y="227"/>
      <point x="228" y="230"/>
      <point x="228" y="234" type="curve" smooth="yes"/>
      <point x="227" y="295" type="line" smooth="yes"/>
      <point x="226" y="348"/>
      <point x="205" y="371"/>
      <point x="172" y="371" type="curve" smooth="yes"/>
      <point x="154" y="371"/>
      <point x="127" y="351"/>
      <point x="127" y="338" type="curve" smooth="yes"/>
      <point x="127" y="325"/>
      <point x="126" y="326"/>
      <point x="132" y="313" type="curve"/>
      <point x="119" y="299"/>
      <point x="72" y="279"/>
      <point x="65" y="277" type="curve" smooth="yes"/>
      <point x="44" y="270"/>
      <point x="29" y="273"/>
      <point x="29" y="301" type="curve" smooth="yes"/>
      <point x="29" y="330"/>
      <point x="57" y="361"/>
      <point x="94" y="390" type="curve" smooth="yes"/>
      <point x="131" y="418"/>
      <point x="157" y="431"/>
      <point x="192" y="431" type="curve" smooth="yes"/>
      <point x="237" y="431"/>
      <point x="284" y="406"/>
      <point x="309" y="372" type="curve" smooth="yes"/>
      <point x="326" y="348"/>
      <point x="327" y="338"/>
      <point x="327" y="278" type="curve" smooth="yes"/>
      <point x="327" y="104" type="line" smooth="yes"/>
      <point x="327" y="69"/>
      <point x="331" y="67"/>
      <point x="338" y="67" type="curve" smooth="yes"/>
      <point x="352" y="67"/>
      <point x="361" y="73"/>
      <point x="373" y="82" type="curve" smooth="yes"/>
      <point x="379" y="86"/>
      <point x="381" y="87"/>
      <point x="389" y="87" type="curve" smooth="yes"/>
      <point x="409" y="84"/>
      <point x="408" y="60"/>
      <point x="403" y="48" type="curve"/>
      <point x="362" y="11"/>
      <point x="320" y="-12"/>
      <point x="292" y="-12" type="curve" smooth="yes"/>
      <point x="260" y="-12"/>
      <point x="242" y="5"/>
    </contour>
    <contour>
      <point x="227" y="162" type="line" smooth="yes"/>
      <point x="227" y="166"/>
      <point x="224" y="171"/>
      <point x="221" y="170" type="curve" smooth="yes"/>
      <point x="201" y="160"/>
      <point x="186" y="154"/>
      <point x="164" y="145" type="curve" smooth="yes"/>
      <point x="128" y="131"/>
      <point x="118" y="116"/>
      <point x="118" y="96" type="curve" smooth="yes"/>
      <point x="118" y="72"/>
      <point x="137" y="54"/>
      <point x="162" y="54" type="curve" smooth="yes"/>
      <point x="177" y="54"/>
      <point x="219" y="79"/>
      <point x="227" y="96" type="curve"/>
    </contour>
  </outline>
</glyph>
<glyph name="aring" format="1">
  <advance width="421"/>
  <unicode hex="00E5"/>
  <outline>
    <contour>
      <point x="200" y="467" type="curve" smooth="yes"/>
      <point x="140" y="467"/>
      <point x="92" y="515"/>
      <point x="92" y="574" type="curve" smooth="yes"/>
      <point x="92" y="632"/>
      <point x="140" y="680"/>
      <point x="200" y="680" type="curve" smooth="yes"/>
      <point x="258" y="680"/>
      <point x="306" y="632"/>
      <point x="306" y="574" type="curve" smooth="yes"/>
      <point x="306" y="515"/>
      <point x="258" y="467"/>
    </contour>
    <contour>
      <point x="200" y="616" type="curve" smooth="yes"/>
      <point x="176" y="616"/>
      <point x="157" y="597"/>
      <point x="157" y="574" type="curve" smooth="yes"/>
      <point x="157" y="550"/>
      <point x="176" y="531"/>
      <point x="200" y="531" type="curve" smooth="yes"/>
      <point x="222" y="531"/>
      <point x="241" y="550"/>
      <point x="241" y="574" type="curve" smooth="yes"/>
      <point x="241" y="597"/>
      <point x="222" y="616"/>
    </contour>
    <contour>
      <point x="233" y="36" type="curve"/>
      <point x="233" y="35" type="line"/>
      <point x="190" y="1"/>
      <point x="168" y="-12"/>
      <point x="128" y="-12" type="curve" smooth="yes"/>
      <point x="67" y="-12"/>
      <point x="23" y="27"/>
      <point x="23" y="84" type="curve" smooth="yes"/>
      <point x="23" y="140"/>
      <point x="65" y="173"/>
      <point x="134" y="191" type="curve" smooth="yes"/>
      <point x="165" y="199"/>
      <point x="193" y="212"/>
      <point x="222" y="225" type="curve" smooth="yes"/>
      <point x="225" y="227"/>
      <point x="228" y="230"/>
      <point x="228" y="234" type="curve" smooth="yes"/>
      <point x="227" y="295" type="line" smooth="yes"/>
      <point x="226" y="348"/>
      <point x="205" y="371"/>
      <point x="172" y="371" type="curve" smooth="yes"/>
      <point x="154" y="371"/>
      <point x="127" y="351"/>
      <point x="127" y="338" type="curve" smooth="yes"/>
      <point x="127" y="325"/>
      <point x="126" y="326"/>
      <point x="132" y="313" type="curve"/>
      <point x="119" y="299"/>
      <point x="72" y="279"/>
      <point x="65" y="277" type="curve" smooth="yes"/>
      <point x="44" y="270"/>
      <point x="29" y="273"/>
      <point x="29" y="301" type="curve" smooth="yes"/>
      <point x="29" y="330"/>
      <point x="57" y="361"/>
      <point x="94" y="390" type="curve" smooth="yes"/>
      <point x="131" y="418"/>
      <point x="157" y="431"/>
      <point x="192" y="431" type="curve" smooth="yes"/>
      <point x="237" y="431"/>
      <point x="284" y="406"/>
      <point x="309" y="372" type="curve" smooth="yes"/>
      <point x="326" y="348"/>
      <point x="327" y="338"/>
      <point x="327" y="278" type="curve" smooth="yes"/>
      <point x="327" y="104" type="line" smooth="yes"/>
      <point x="327" y="69"/>
      <point x="331" y="67"/>
      <point x="338" y="67" type="curve" smooth="yes"/>
      <point x="352" y="67"/>
      <point x="361" y="73"/>
      <point x="373" y="82" type="curve" smooth="yes"/>
      <point x="379" y="86"/>
      <point x="381" y="87"/>
      <point x="389" y="87" type="curve" smooth="yes"/>
      <point x="409" y="84"/>
      <point x="408" y="60"/>
      <point x="403" y="48" type="curve"/>
      <point x="362" y="11"/>
      <point x="320" y="-12"/>
      <point x="292" y="-12" type="curve" smooth="yes"/>
      <point x="260" y="-12"/>
      <point x="242" y="5"/>
    </contour>
    <contour>
      <point x="227" y="162" type="line" smooth="yes"/>
      <point x="227" y="166"/>
      <point x="224" y="171"/>
      <point x="221" y="170" type="curve" smooth="yes"/>
      <point x="201" y="160"/>
      <point x="186" y="154"/>
      <point x="164" y="145" type="curve" smooth="yes"/>
      <point x="128" y="131"/>
      <point x="118" y="116"/>
      <point x="118" y="96" type="curve" smooth="yes"/>
      <point x="118" y="72"/>
      <point x="137" y="54"/>
      <point x="162" y="54" type="curve" smooth="yes"/>
      <point x="177" y="54"/>
      <point x="219" y="79"/>
      <point x="227" y="96" type="curve"/>
    </contour>
  </outline>
</glyph>
<glyph name="ae" format="1">
  <advance width="654"/>
  <unicode hex="00E6"/>
  <outline>
    <contour>
      <point x="602" y="252" type="curve" smooth="yes"/>
      <point x="366" y="252" type="line" smooth="yes"/>
      <point x="352" y="252"/>
      <point x="349" y="249"/>
      <point x="349" y="241" type="curve" smooth="yes"/>
      <point x="349" y="206"/>
      <point x="353" y="165"/>
      <point x="360" y="144" type="curve" smooth="yes"/>
      <point x="375" y="98"/>
      <point x="423" y="65"/>
      <point x="471" y="65" type="curve" smooth="yes"/>
      <point x="510" y="65"/>
      <point x="534" y="79"/>
      <point x="574" y="119" type="curve" smooth="yes"/>
      <point x="581" y="127"/>
      <point x="593" y="134"/>
      <point x="603" y="124" type="curve" smooth="yes"/>
      <point x="615" y="114" type="line" smooth="yes"/>
      <point x="628" y="103"/>
      <point x="622" y="93"/>
      <point x="614" y="84" type="curve" smooth="yes"/>
      <point x="570" y="35"/>
      <point x="507" y="-17"/>
      <point x="434" y="-17" type="curve" smooth="yes"/>
      <point x="378" y="-17"/>
      <point x="329" y="8"/>
      <point x="295" y="53" type="curve" smooth="yes"/>
      <point x="291" y="57"/>
      <point x="289" y="58"/>
      <point x="286" y="55" type="curve" smooth="yes"/>
      <point x="244" y="13"/>
      <point x="186" y="-17"/>
      <point x="139" y="-17" type="curve" smooth="yes"/>
      <point x="79" y="-17"/>
      <point x="31" y="24"/>
      <point x="31" y="80" type="curve" smooth="yes"/>
      <point x="31" y="144"/>
      <point x="68" y="170"/>
      <point x="167" y="195" type="curve" smooth="yes"/>
      <point x="204" y="204"/>
      <point x="224" y="213"/>
      <point x="250" y="229" type="curve"/>
      <point x="250" y="287" type="line" smooth="yes"/>
      <point x="250" y="345"/>
      <point x="227" y="369"/>
      <point x="191" y="369" type="curve" smooth="yes"/>
      <point x="160" y="369"/>
      <point x="140" y="350"/>
      <point x="140" y="335" type="curve" smooth="yes"/>
      <point x="140" y="320"/>
      <point x="147" y="307"/>
      <point x="128" y="298" type="curve" smooth="yes"/>
      <point x="74" y="274" type="line" smooth="yes"/>
      <point x="51" y="264"/>
      <point x="40" y="264"/>
      <point x="40" y="303" type="curve" smooth="yes"/>
      <point x="40" y="333"/>
      <point x="65" y="360"/>
      <point x="109" y="393" type="curve" smooth="yes"/>
      <point x="145" y="420"/>
      <point x="175" y="431"/>
      <point x="208" y="431" type="curve" smooth="yes"/>
      <point x="250" y="431"/>
      <point x="291" y="413"/>
      <point x="319" y="383" type="curve" smooth="yes"/>
      <point x="322" y="381"/>
      <point x="321" y="381"/>
      <point x="324" y="383" type="curve" smooth="yes"/>
      <point x="360" y="416"/>
      <point x="409" y="433"/>
      <point x="458" y="433" type="curve" smooth="yes"/>
      <point x="547" y="433"/>
      <point x="583" y="386"/>
      <point x="614" y="314" type="curve" smooth="yes"/>
      <point x="618" y="307"/>
      <point x="619" y="305"/>
      <point x="632" y="292" type="curve"/>
      <point x="632" y="274" type="line" smooth="yes"/>
      <point x="632" y="254"/>
      <point x="621" y="252"/>
    </contour>
    <contour>
      <point x="436" y="380" type="curve" smooth="yes"/>
      <point x="399" y="380"/>
      <point x="372" y="358"/>
      <point x="358" y="312" type="curve" smooth="yes"/>
      <point x="357" y="308"/>
      <point x="355" y="303"/>
      <point x="366" y="303" type="curve" smooth="yes"/>
      <point x="501" y="303" type="line" smooth="yes"/>
      <point x="505" y="303"/>
      <point x="510" y="304"/>
      <point x="508" y="310" type="curve" smooth="yes"/>
      <point x="496" y="357"/>
      <point x="466" y="380"/>
    </contour>
    <contour>
      <point x="250" y="146" type="line" smooth="yes"/>
      <point x="250" y="158"/>
      <point x="250" y="170"/>
      <point x="243" y="166" type="curve" smooth="yes"/>
      <point x="231" y="161"/>
      <point x="215" y="154"/>
      <point x="193" y="147" type="curve" smooth="yes"/>
      <point x="139" y="129"/>
      <point x="130" y="117"/>
      <point x="130" y="93" type="curve" smooth="yes"/>
      <point x="130" y="66"/>
      <point x="147" y="51"/>
      <point x="174" y="51" type="curve" smooth="yes"/>
      <point x="195" y="51"/>
      <point x="220" y="62"/>
      <point x="250" y="90" type="curve"/>
    </contour>
  </outline>
</glyph>
<glyph name="eacute" format="1">
  <advance width="427"/>
  <unicode hex="00E9"/>
  <outline>
    <contour>
      <point x="349" y="631" type="curve" smooth="yes"/>
      <point x="210" y="464" type="line" smooth="yes"/>
      <point x="200" y="452"/>
      <point x="160" y="454"/>
      <point x="168" y="482" type="curve" smooth="yes"/>
      <point x="216" y="641" type="line" smooth="yes"/>
      <point x="220" y="654"/>
      <point x="233" y="661"/>
      <point x="243" y="661" type="curve" smooth="yes"/>
      <point x="329" y="661" type="line" smooth="yes"/>
      <point x="340" y="661"/>
      <point x="356" y="657"/>
      <point x="353" y="641" type="curve" smooth="yes"/>
      <point x="353" y="637"/>
      <point x="352" y="633"/>
    </contour>
    <contour>
      <point x="386" y="256" type="curve" smooth="yes"/>
      <point x="311" y="253"/>
      <point x="194" y="255"/>
      <point x="131" y="256" type="curve" smooth="yes"/>
      <point x="117" y="256"/>
      <point x="118" y="237"/>
      <point x="118" y="228" type="curve" smooth="yes"/>
      <point x="118" y="133"/>
      <point x="176" y="67"/>
      <point x="251" y="67" type="curve" smooth="yes"/>
      <point x="294" y="67"/>
      <point x="327" y="82"/>
      <point x="364" y="125" type="curve" smooth="yes"/>
      <point x="369" y="131"/>
      <point x="380" y="135"/>
      <point x="388" y="133" type="curve" smooth="yes"/>
      <point x="402" y="130"/>
      <point x="412" y="111"/>
      <point x="404" y="97" type="curve" smooth="yes"/>
      <point x="355" y="41"/>
      <point x="294" y="-15"/>
      <point x="212" y="-15" type="curve" smooth="yes"/>
      <point x="102" y="-15"/>
      <point x="21" y="84"/>
      <point x="21" y="204" type="curve" smooth="yes"/>
      <point x="21" y="334"/>
      <point x="110" y="432"/>
      <point x="232" y="432" type="curve" smooth="yes"/>
      <point x="303" y="432"/>
      <point x="351" y="404"/>
      <point x="381" y="342" type="curve" smooth="yes"/>
      <point x="389" y="326"/>
      <point x="396" y="310"/>
      <point x="408" y="295" type="curve"/>
      <point x="413" y="279"/>
      <point x="412" y="257"/>
    </contour>
    <contour>
      <point x="210" y="382" type="curve" smooth="yes"/>
      <point x="177" y="382"/>
      <point x="148" y="360"/>
      <point x="130" y="311" type="curve" smooth="yes"/>
      <point x="128" y="306"/>
      <point x="140" y="307"/>
      <point x="142" y="307" type="curve" smooth="yes"/>
      <point x="277" y="307" type="line" smooth="yes"/>
      <point x="281" y="307"/>
      <point x="290" y="304"/>
      <point x="289" y="308" type="curve" smooth="yes"/>
      <point x="275" y="358"/>
      <point x="246" y="382"/>
    </contour>
  </outline>
</glyph>
<glyph name="ecircumflex" format="1">
  <advance width="427"/>
  <unicode hex="00EA"/>
  <outline>
    <contour>
      <point x="366" y="467" type="curve" smooth="yes"/>
      <point x="358" y="465"/>
      <point x="345" y="465"/>
      <point x="338" y="471" type="curve" smooth="yes"/>
      <point x="230" y="562" type="line"/>
      <point x="129" y="471" type="line" smooth="yes"/>
      <point x="114" y="457"/>
      <point x="79" y="471"/>
      <point x="90" y="489" type="curve" smooth="yes"/>
      <point x="178" y="634" type="line" smooth="yes"/>
      <point x="183" y="641"/>
      <point x="190" y="645"/>
      <point x="197" y="648" type="curve" smooth="yes"/>
      <point x="205" y="649"/>
      <point x="249" y="650"/>
      <point x="263" y="649" type="curve" smooth="yes"/>
      <point x="275" y="648"/>
      <point x="280" y="646"/>
      <point x="287" y="635" type="curve" smooth="yes"/>
      <point x="374" y="493" type="line" smooth="yes"/>
      <point x="378" y="484"/>
      <point x="381" y="471"/>
    </contour>
    <contour>
      <point x="386" y="256" type="curve" smooth="yes"/>
      <point x="311" y="253"/>
      <point x="194" y="255"/>
      <point x="131" y="256" type="curve" smooth="yes"/>
      <point x="117" y="256"/>
      <point x="118" y="237"/>
      <point x="118" y="228" type="curve" smooth="yes"/>
      <point x="118" y="133"/>
      <point x="176" y="67"/>
      <point x="251" y="67" type="curve" smooth="yes"/>
      <point x="294" y="67"/>
      <point x="327" y="82"/>
      <point x="364" y="125" type="curve" smooth="yes"/>
      <point x="369" y="131"/>
      <point x="380" y="135"/>
      <point x="388" y="133" type="curve" smooth="yes"/>
      <point x="402" y="130"/>
      <point x="412" y="111"/>
      <point x="404" y="97" type="curve" smooth="yes"/>
      <point x="355" y="41"/>
      <point x="294" y="-15"/>
      <point x="212" y="-15" type="curve" smooth="yes"/>
      <point x="102" y="-15"/>
      <point x="21" y="84"/>
      <point x="21" y="204" type="curve" smooth="yes"/>
      <point x="21" y="333"/>
      <point x="110" y="432"/>
      <point x="232" y="432" type="curve" smooth="yes"/>
      <point x="303" y="432"/>
      <point x="351" y="404"/>
      <point x="381" y="342" type="curve" smooth="yes"/>
      <point x="389" y="325"/>
      <point x="396" y="309"/>
      <point x="408" y="295" type="curve"/>
      <point x="413" y="279"/>
      <point x="412" y="257"/>
    </contour>
    <contour>
      <point x="210" y="382" type="curve" smooth="yes"/>
      <point x="177" y="382"/>
      <point x="148" y="360"/>
      <point x="130" y="310" type="curve" smooth="yes"/>
      <point x="128" y="305"/>
      <point x="140" y="307"/>
      <point x="142" y="307" type="curve" smooth="yes"/>
      <point x="277" y="307" type="line" smooth="yes"/>
      <point x="281" y="307"/>
      <point x="290" y="304"/>
      <point x="289" y="308" type="curve" smooth="yes"/>
      <point x="275" y="358"/>
      <point x="246" y="382"/>
    </contour>
  </outline>
</glyph>
<glyph name="edieresis" format="1">
  <advance width="427"/>
  <unicode hex="00EB"/>
  <outline>
    <contour>
      <point x="314" y="467" type="curve" smooth="yes"/>
      <point x="278" y="467"/>
      <point x="248" y="496"/>
      <point x="248" y="533" type="curve" smooth="yes"/>
      <point x="248" y="568"/>
      <point x="278" y="598"/>
      <point x="314" y="598" type="curve" smooth="yes"/>
      <point x="352" y="598"/>
      <point x="380" y="568"/>
      <point x="380" y="533" type="curve" smooth="yes"/>
      <point x="380" y="497"/>
      <point x="352" y="467"/>
    </contour>
    <contour>
      <point x="151" y="467" type="curve" smooth="yes"/>
      <point x="114" y="467"/>
      <point x="84" y="495"/>
      <point x="84" y="533" type="curve" smooth="yes"/>
      <point x="84" y="568"/>
      <point x="114" y="598"/>
      <point x="151" y="598" type="curve" smooth="yes"/>
      <point x="187" y="598"/>
      <point x="217" y="568"/>
      <point x="217" y="533" type="curve" smooth="yes"/>
      <point x="217" y="495"/>
      <point x="187" y="467"/>
    </contour>
    <contour>
      <point x="386" y="256" type="curve" smooth="yes"/>
      <point x="311" y="253"/>
      <point x="194" y="255"/>
      <point x="131" y="256" type="curve" smooth="yes"/>
      <point x="117" y="256"/>
      <point x="118" y="236"/>
      <point x="118" y="228" type="curve" smooth="yes"/>
      <point x="118" y="133"/>
      <point x="176" y="67"/>
      <point x="251" y="67" type="curve" smooth="yes"/>
      <point x="294" y="67"/>
      <point x="327" y="82"/>
      <point x="364" y="125" type="curve" smooth="yes"/>
      <point x="369" y="131"/>
      <point x="380" y="135"/>
      <point x="388" y="133" type="curve" smooth="yes"/>
      <point x="402" y="130"/>
      <point x="412" y="111"/>
      <point x="404" y="97" type="curve" smooth="yes"/>
      <point x="355" y="41"/>
      <point x="294" y="-15"/>
      <point x="212" y="-15" type="curve" smooth="yes"/>
      <point x="102" y="-15"/>
      <point x="21" y="83"/>
      <point x="21" y="204" type="curve" smooth="yes"/>
      <point x="21" y="333"/>
      <point x="110" y="432"/>
      <point x="232" y="432" type="curve" smooth="yes"/>
      <point x="303" y="432"/>
      <point x="351" y="403"/>
      <point x="381" y="341" type="curve" smooth="yes"/>
      <point x="389" y="325"/>
      <point x="396" y="309"/>
      <point x="408" y="295" type="curve"/>
      <point x="413" y="278"/>
      <point x="412" y="257"/>
    </contour>
    <contour>
      <point x="210" y="382" type="curve" smooth="yes"/>
      <point x="177" y="382"/>
      <point x="148" y="359"/>
      <point x="130" y="310" type="curve" smooth="yes"/>
      <point x="128" y="305"/>
      <point x="140" y="307"/>
      <point x="142" y="307" type="curve" smooth="yes"/>
      <point x="277" y="307" type="line" smooth="yes"/>
      <point x="281" y="307"/>
      <point x="290" y="304"/>
      <point x="289" y="308" type="curve" smooth="yes"/>
      <point x="275" y="358"/>
      <point x="246" y="382"/>
    </contour>
  </outline>
</glyph>
<glyph name="ograve" format="1">
  <advance width="500"/>
  <unicode hex="00F2"/>
  <outline>
    <contour>
      <point x="292" y="478" type="curve" smooth="yes"/>
      <point x="260" y="519"/>
      <point x="203" y="586"/>
      <point x="160" y="631" type="curve" smooth="yes"/>
      <point x="144" y="649"/>
      <point x="171" y="667"/>
      <point x="182" y="667" type="curve" smooth="yes"/>
      <point x="258" y="668" type="line" smooth="yes"/>
      <point x="266" y="668"/>
      <point x="277" y="668"/>
      <point x="286" y="655" type="curve" smooth="yes"/>
      <point x="303" y="610"/>
      <point x="324" y="536"/>
      <point x="334" y="494" type="curve"/>
      <point x="337" y="464"/>
      <point x="301" y="470"/>
    </contour>
    <contour>
      <point x="253" y="-15" type="curve" smooth="yes"/>
      <point x="121" y="-15"/>
      <point x="20" y="82"/>
      <point x="20" y="210" type="curve" smooth="yes"/>
      <point x="20" y="340"/>
      <point x="119" y="437"/>
      <point x="250" y="437" type="curve" smooth="yes"/>
      <point x="382" y="437"/>
      <point x="484" y="338"/>
      <point x="483" y="209" type="curve" smooth="yes"/>
      <point x="482" y="84"/>
      <point x="382" y="-15"/>
    </contour>
    <contour>
      <point x="236" y="382" type="curve" smooth="yes"/>
      <point x="176" y="382"/>
      <point x="126" y="325"/>
      <point x="126" y="242" type="curve" smooth="yes"/>
      <point x="126" y="125"/>
      <point x="192" y="41"/>
      <point x="265" y="41" type="curve" smooth="yes"/>
      <point x="325" y="41"/>
      <point x="375" y="98"/>
      <point x="375" y="186" type="curve" smooth="yes"/>
      <point x="375" y="296"/>
      <point x="308" y="382"/>
    </contour>
  </outline>
</glyph>
<glyph name="odieresis" format="1">
  <advance width="500"/>
  <unicode hex="00F6"/>
  <outline>
    <contour>
      <point x="335" y="467" type="curve" smooth="yes"/>
      <point x="299" y="467"/>
      <point x="269" y="496"/>
      <point x="269" y="533" type="curve" smooth="yes"/>
      <point x="269" y="568"/>
      <point x="299" y="598"/>
      <point x="335" y="598" type="curve" smooth="yes"/>
      <point x="373" y="598"/>
      <point x="402" y="568"/>
      <point x="402" y="533" type="curve" smooth="yes"/>
      <point x="402" y="497"/>
      <point x="373" y="467"/>
    </contour>
    <contour>
      <point x="171" y="467" type="curve" smooth="yes"/>
      <point x="135" y="467"/>
      <point x="105" y="495"/>
      <point x="105" y="533" type="curve" smooth="yes"/>
      <point x="105" y="568"/>
      <point x="135" y="598"/>
      <point x="171" y="598" type="curve" smooth="yes"/>
      <point x="207" y="598"/>
      <point x="237" y="568"/>
      <point x="237" y="533" type="curve" smooth="yes"/>
      <point x="237" y="495"/>
      <point x="207" y="467"/>
    </contour>
    <contour>
      <point x="253" y="-15" type="curve" smooth="yes"/>
      <point x="121" y="-15"/>
      <point x="20" y="82"/>
      <point x="20" y="210" type="curve" smooth="yes"/>
      <point x="20" y="339"/>
      <point x="119" y="436"/>
      <point x="250" y="436" type="curve" smooth="yes"/>
      <point x="382" y="436"/>
      <point x="484" y="337"/>
      <point x="483" y="209" type="curve" smooth="yes"/>
      <point x="482" y="83"/>
      <point x="382" y="-15"/>
    </contour>
    <contour>
      <point x="236" y="380" type="curve" smooth="yes"/>
      <point x="176" y="380"/>
      <point x="126" y="324"/>
      <point x="126" y="241" type="curve" smooth="yes"/>
      <point x="126" y="125"/>
      <point x="192" y="41"/>
      <point x="265" y="41" type="curve" smooth="yes"/>
      <point x="325" y="41"/>
      <point x="375" y="98"/>
      <point x="375" y="186" type="curve" smooth="yes"/>
      <point x="375" y="295"/>
      <point x="308" y="380"/>
    </contour>
  </outline>
</glyph>
<glyph name="oslash" format="1">
  <advance width="545"/>
  <unicode hex="00F8"/>
  <outline>
    <contour>
      <point x="454" y="355" type="curve" smooth="yes"/>
      <point x="491" y="313"/>
      <point x="510" y="265"/>
      <point x="510" y="207" type="curve" smooth="yes"/>
      <point x="510" y="79"/>
      <point x="408" y="-18"/>
      <point x="278" y="-18" type="curve" smooth="yes"/>
      <point x="231" y="-18"/>
      <point x="185" y="-5"/>
      <point x="145" y="20" type="curve" smooth="yes"/>
      <point x="144" y="20"/>
      <point x="144" y="20"/>
      <point x="143" y="19" type="curve" smooth="yes"/>
      <point x="90" y="-46" type="line" smooth="yes"/>
      <point x="81" y="-54"/>
      <point x="69" y="-55"/>
      <point x="60" y="-46" type="curve" smooth="yes"/>
      <point x="50" y="-38" type="line" smooth="yes"/>
      <point x="41" y="-31"/>
      <point x="39" y="-25"/>
      <point x="52" y="-9" type="curve" smooth="yes"/>
      <point x="64" y="5"/>
      <point x="82" y="26"/>
      <point x="99" y="44" type="curve" smooth="yes"/>
      <point x="102" y="48"/>
      <point x="103" y="53"/>
      <point x="99" y="57" type="curve" smooth="yes"/>
      <point x="60" y="98"/>
      <point x="40" y="146"/>
      <point x="40" y="205" type="curve" smooth="yes"/>
      <point x="40" y="335"/>
      <point x="141" y="433"/>
      <point x="275" y="433" type="curve" smooth="yes"/>
      <point x="321" y="433"/>
      <point x="361" y="422"/>
      <point x="400" y="399" type="curve" smooth="yes"/>
      <point x="409" y="394"/>
      <point x="408" y="395"/>
      <point x="413" y="401" type="curve" smooth="yes"/>
      <point x="454" y="447" type="line" smooth="yes"/>
      <point x="462" y="457"/>
      <point x="473" y="455"/>
      <point x="480" y="448" type="curve" smooth="yes"/>
      <point x="486" y="443"/>
      <point x="488" y="440"/>
      <point x="493" y="434" type="curve" smooth="yes"/>
      <point x="502" y="422"/>
      <point x="496" y="419"/>
      <point x="484" y="405" type="curve" smooth="yes"/>
      <point x="473" y="393"/>
      <point x="462" y="380"/>
      <point x="452" y="368" type="curve" smooth="yes"/>
      <point x="449" y="364"/>
      <point x="448" y="361"/>
    </contour>
    <contour>
      <point x="261" y="378" type="curve" smooth="yes"/>
      <point x="199" y="378"/>
      <point x="150" y="322"/>
      <point x="150" y="236" type="curve" smooth="yes"/>
      <point x="150" y="200"/>
      <point x="155" y="169"/>
      <point x="168" y="138" type="curve" smooth="yes"/>
      <point x="171" y="133"/>
      <point x="174" y="131"/>
      <point x="179" y="136" type="curve" smooth="yes"/>
      <point x="347" y="326" type="line" smooth="yes"/>
      <point x="351" y="331"/>
      <point x="349" y="334"/>
      <point x="346" y="337" type="curve" smooth="yes"/>
      <point x="321" y="364"/>
      <point x="292" y="378"/>
    </contour>
    <contour>
      <point x="374" y="280" type="curve" smooth="yes"/>
      <point x="204" y="87" type="line" smooth="yes"/>
      <point x="202" y="84"/>
      <point x="202" y="81"/>
      <point x="206" y="77" type="curve" smooth="yes"/>
      <point x="230" y="51"/>
      <point x="260" y="38"/>
      <point x="289" y="38" type="curve" smooth="yes"/>
      <point x="350" y="38"/>
      <point x="402" y="95"/>
      <point x="402" y="183" type="curve" smooth="yes"/>
      <point x="402" y="214"/>
      <point x="396" y="245"/>
      <point x="382" y="276" type="curve" smooth="yes"/>
      <point x="380" y="282"/>
      <point x="377" y="284"/>
    </contour>
  </outline>
</glyph>
<glyph name="ydieresis" format="1">
  <advance width="494"/>
  <unicode hex="00FF"/>
  <outline>
    <contour>
      <point x="344" y="489" type="curve" smooth="yes"/>
      <point x="306" y="489"/>
      <point x="275" y="520"/>
      <point x="275" y="558" type="curve" smooth="yes"/>
      <point x="275" y="596"/>
      <point x="306" y="627"/>
      <point x="344" y="627" type="curve" smooth="yes"/>
      <point x="383" y="627"/>
      <point x="414" y="596"/>
      <point x="414" y="558" type="curve" smooth="yes"/>
      <point x="414" y="520"/>
      <point x="383" y="489"/>
    </contour>
    <contour>
      <point x="171" y="489" type="curve" smooth="yes"/>
      <point x="133" y="489"/>
      <point x="101" y="519"/>
      <point x="101" y="558" type="curve" smooth="yes"/>
      <point x="101" y="596"/>
      <point x="133" y="627"/>
      <point x="171" y="627" type="curve" smooth="yes"/>
      <point x="209" y="627"/>
      <point x="240" y="596"/>
      <point x="240" y="558" type="curve" smooth="yes"/>
      <point x="240" y="519"/>
      <point x="209" y="489"/>
    </contour>
    <contour>
      <point x="278" y="136" type="curve" smooth="yes"/>
      <point x="327" y="269" type="line" smooth="yes"/>
      <point x="334" y="287"/>
      <point x="350" y="326"/>
      <point x="350" y="345" type="curve" smooth="yes"/>
      <point x="350" y="362"/>
      <point x="347" y="369"/>
      <point x="301" y="369" type="curve"/>
      <point x="290" y="375"/>
      <point x="280" y="414"/>
      <point x="304" y="418" type="curve" smooth="yes"/>
      <point x="308" y="419"/>
      <point x="311" y="418"/>
      <point x="314" y="418" type="curve" smooth="yes"/>
      <point x="372" y="418"/>
      <point x="408" y="419"/>
      <point x="461" y="419" type="curve" smooth="yes"/>
      <point x="486" y="419"/>
      <point x="488" y="393"/>
      <point x="482" y="378" type="curve" smooth="yes"/>
      <point x="479" y="371"/>
      <point x="473" y="370"/>
      <point x="468" y="369" type="curve" smooth="yes"/>
      <point x="437" y="367"/>
      <point x="421" y="356"/>
      <point x="382" y="250" type="curve" smooth="yes"/>
      <point x="263" y="-74" type="line" smooth="yes"/>
      <point x="246" y="-120"/>
      <point x="233" y="-152"/>
      <point x="221" y="-178" type="curve" smooth="yes"/>
      <point x="210" y="-204"/>
      <point x="199" y="-222"/>
      <point x="185" y="-240" type="curve" smooth="yes"/>
      <point x="171" y="-256"/>
      <point x="147" y="-264"/>
      <point x="128" y="-264" type="curve" smooth="yes"/>
      <point x="98" y="-264"/>
      <point x="70" y="-236"/>
      <point x="70" y="-207" type="curve" smooth="yes"/>
      <point x="70" y="-177"/>
      <point x="97" y="-165"/>
      <point x="128" y="-156" type="curve" smooth="yes"/>
      <point x="201" y="-137"/>
      <point x="207" y="-67"/>
      <point x="218" y="-5" type="curve"/>
      <point x="99" y="284" type="line" smooth="yes"/>
      <point x="65" y="366"/>
      <point x="63" y="366"/>
      <point x="22" y="370" type="curve" smooth="yes"/>
      <point x="6" y="373"/>
      <point x="-4" y="420"/>
      <point x="31" y="419" type="curve" smooth="yes"/>
      <point x="33" y="419"/>
      <point x="41" y="419"/>
      <point x="43" y="419" type="curve" smooth="yes"/>
      <point x="92" y="419"/>
      <point x="179" y="419"/>
      <point x="208" y="419" type="curve" smooth="yes"/>
      <point x="244" y="420"/>
      <point x="234" y="373"/>
      <point x="217" y="369" type="curve" smooth="yes"/>
      <point x="209" y="369"/>
      <point x="196" y="369"/>
      <point x="187" y="366" type="curve" smooth="yes"/>
      <point x="169" y="361"/>
      <point x="183" y="336"/>
      <point x="188" y="326" type="curve" smooth="yes"/>
      <point x="218" y="259"/>
      <point x="240" y="196"/>
      <point x="267" y="128" type="curve" smooth="yes"/>
      <point x="270" y="121"/>
      <point x="274" y="125"/>
    </contour>
  </outline>
</glyph>
<glyph name="dotlessi" format="1">
  <advance width="272"/>
  <unicode hex="0131"/>
  <outline>
    <contour>
      <point x="235" y="-2" type="curve" smooth="yes"/>
      <point x="186" y="-1"/>
      <point x="98" y="-1"/>
      <point x="34" y="-2" type="curve" smooth="yes"/>
      <point x="25" y="-2"/>
      <point x="16" y="10"/>
      <point x="15" y="21" type="curve" smooth="yes"/>
      <point x="14" y="32"/>
      <point x="18" y="49"/>
      <point x="32" y="49" type="curve" smooth="yes"/>
      <point x="44" y="49" type="line" smooth="yes"/>
      <point x="92" y="49"/>
      <point x="91" y="54"/>
      <point x="91" y="129" type="curve" smooth="yes"/>
      <point x="91" y="300" type="line" smooth="yes"/>
      <point x="91" y="325"/>
      <point x="91" y="334"/>
      <point x="89" y="338" type="curve" smooth="yes"/>
      <point x="87" y="341"/>
      <point x="77" y="342"/>
      <point x="74" y="343" type="curve" smooth="yes"/>
      <point x="59" y="346"/>
      <point x="47" y="349"/>
      <point x="33" y="353" type="curve" smooth="yes"/>
      <point x="15" y="360"/>
      <point x="21" y="389"/>
      <point x="31" y="396" type="curve" smooth="yes"/>
      <point x="153" y="438" type="line" smooth="yes"/>
      <point x="173" y="445"/>
      <point x="186" y="437"/>
      <point x="186" y="416" type="curve" smooth="yes"/>
      <point x="186" y="129" type="line" smooth="yes"/>
      <point x="186" y="110"/>
      <point x="186" y="93"/>
      <point x="187" y="80" type="curve" smooth="yes"/>
      <point x="189" y="50"/>
      <point x="190" y="49"/>
      <point x="225" y="49" type="curve" smooth="yes"/>
      <point x="236" y="49" type="line"/>
      <point x="250" y="45"/>
      <point x="251" y="29"/>
      <point x="251" y="22" type="curve" smooth="yes"/>
      <point x="250" y="12"/>
      <point x="242" y="-2"/>
    </contour>
  </outline>
</glyph>
<glyph name="Lslash" format="1">
  <advance width="583"/>
  <unicode hex="0141"/>
  <outline>
    <contour>
      <point x="509" y="13" type="curve" smooth="yes"/>
      <point x="503" y="1"/>
      <point x="489" y="-5"/>
      <point x="467" y="-5" type="curve" smooth="yes"/>
      <point x="363" y="-5"/>
      <point x="100" y="-3"/>
      <point x="48" y="-7" type="curve" smooth="yes"/>
      <point x="21" y="-6"/>
      <point x="20" y="-3"/>
      <point x="16" y="11" type="curve" smooth="yes"/>
      <point x="16" y="17"/>
      <point x="14" y="30"/>
      <point x="16" y="36" type="curve" smooth="yes"/>
      <point x="22" y="52"/>
      <point x="36" y="55"/>
      <point x="51" y="55" type="curve" smooth="yes"/>
      <point x="95" y="55"/>
      <point x="114" y="57"/>
      <point x="116" y="97" type="curve" smooth="yes"/>
      <point x="117" y="140"/>
      <point x="116" y="169"/>
      <point x="116" y="212" type="curve" smooth="yes"/>
      <point x="116" y="233"/>
      <point x="112" y="232"/>
      <point x="106" y="227" type="curve" smooth="yes"/>
      <point x="83" y="207"/>
      <point x="50" y="183"/>
      <point x="27" y="165" type="curve" smooth="yes"/>
      <point x="11" y="150"/>
      <point x="-3" y="148"/>
      <point x="-3" y="182" type="curve" smooth="yes"/>
      <point x="-3" y="228" type="line" smooth="yes"/>
      <point x="-3" y="240"/>
      <point x="-2" y="247"/>
      <point x="6" y="253" type="curve" smooth="yes"/>
      <point x="105" y="335" type="line" smooth="yes"/>
      <point x="114" y="343"/>
      <point x="116" y="352"/>
      <point x="116" y="356" type="curve" smooth="yes"/>
      <point x="116" y="548" type="line" smooth="yes"/>
      <point x="116" y="594"/>
      <point x="104" y="604"/>
      <point x="51" y="604" type="curve" smooth="yes"/>
      <point x="42" y="604"/>
      <point x="25" y="601"/>
      <point x="24" y="621" type="curve" smooth="yes"/>
      <point x="24" y="624"/>
      <point x="25" y="642"/>
      <point x="25" y="645" type="curve" smooth="yes"/>
      <point x="25" y="657"/>
      <point x="36" y="659"/>
      <point x="48" y="661" type="curve" smooth="yes"/>
      <point x="118" y="659"/>
      <point x="262" y="659"/>
      <point x="334" y="659" type="curve" smooth="yes"/>
      <point x="339" y="659"/>
      <point x="344" y="656"/>
      <point x="347" y="649" type="curve" smooth="yes"/>
      <point x="352" y="639"/>
      <point x="352" y="623"/>
      <point x="347" y="614" type="curve" smooth="yes"/>
      <point x="343" y="608"/>
      <point x="337" y="603"/>
      <point x="326" y="603" type="curve" smooth="yes"/>
      <point x="312" y="602"/>
      <point x="283" y="602"/>
      <point x="262" y="600" type="curve" smooth="yes"/>
      <point x="239" y="598"/>
      <point x="233" y="590"/>
      <point x="233" y="557" type="curve" smooth="yes"/>
      <point x="233" y="451" type="line" smooth="yes"/>
      <point x="233" y="443"/>
      <point x="236" y="442"/>
      <point x="242" y="446" type="curve" smooth="yes"/>
      <point x="256" y="458"/>
      <point x="307" y="502"/>
      <point x="321" y="514" type="curve" smooth="yes"/>
      <point x="335" y="526"/>
      <point x="353" y="538"/>
      <point x="353" y="508" type="curve" smooth="yes"/>
      <point x="353" y="448" type="line" smooth="yes"/>
      <point x="353" y="436"/>
      <point x="349" y="428"/>
      <point x="340" y="421" type="curve" smooth="yes"/>
      <point x="246" y="342" type="line" smooth="yes"/>
      <point x="241" y="337"/>
      <point x="233" y="325"/>
      <point x="233" y="314" type="curve" smooth="yes"/>
      <point x="233" y="106" type="line" smooth="yes"/>
      <point x="233" y="63"/>
      <point x="244" y="63"/>
      <point x="288" y="63" type="curve" smooth="yes"/>
      <point x="382" y="63" type="line" smooth="yes"/>
      <point x="452" y="63"/>
      <point x="457" y="64"/>
      <point x="503" y="126" type="curve" smooth="yes"/>
      <point x="540" y="174" type="line"/>
      <point x="563" y="174" type="line" smooth="yes"/>
      <point x="590" y="174"/>
      <point x="589" y="158"/>
      <point x="578" y="138" type="curve" smooth="yes"/>
      <point x="568" y="118"/>
      <point x="545" y="82"/>
    </contour>
  </outline>
</glyph>
<glyph name="OE" format="1">
  <advance width="1036"/>
  <unicode hex="0152"/>
  <outline>
    <contour>
      <point x="984" y="23" type="curve" smooth="yes"/>
      <point x="980" y="-4"/>
      <point x="960" y="-4"/>
      <point x="942" y="-4" type="curve" smooth="yes"/>
      <point x="823" y="-4"/>
      <point x="713" y="-3"/>
      <point x="593" y="-3" type="curve" smooth="yes"/>
      <point x="526" y="-3"/>
      <point x="460" y="-12"/>
      <point x="394" y="-12" type="curve" smooth="yes"/>
      <point x="205" y="-12"/>
      <point x="49" y="135"/>
      <point x="49" y="321" type="curve" smooth="yes"/>
      <point x="49" y="454"/>
      <point x="129" y="574"/>
      <point x="246" y="630" type="curve" smooth="yes"/>
      <point x="296" y="654"/>
      <point x="345" y="664"/>
      <point x="418" y="664" type="curve" smooth="yes"/>
      <point x="456" y="664"/>
      <point x="492" y="662"/>
      <point x="529" y="660" type="curve" smooth="yes"/>
      <point x="562" y="658"/>
      <point x="574" y="657"/>
      <point x="584" y="657" type="curve" smooth="yes"/>
      <point x="595" y="657"/>
      <point x="606" y="658"/>
      <point x="638" y="658" type="curve" smooth="yes"/>
      <point x="922" y="658" type="line" smooth="yes"/>
      <point x="942" y="658"/>
      <point x="950" y="653"/>
      <point x="952" y="632" type="curve" smooth="yes"/>
      <point x="954" y="620"/>
      <point x="959" y="529"/>
      <point x="957" y="498" type="curve" smooth="yes"/>
      <point x="957" y="490"/>
      <point x="946" y="489"/>
      <point x="940" y="489" type="curve" smooth="yes"/>
      <point x="934" y="489"/>
      <point x="928" y="488"/>
      <point x="922" y="489" type="curve" smooth="yes"/>
      <point x="915" y="490"/>
      <point x="911" y="496"/>
      <point x="908" y="507" type="curve" smooth="yes"/>
      <point x="903" y="526" type="line" smooth="yes"/>
      <point x="888" y="588"/>
      <point x="883" y="590"/>
      <point x="835" y="590" type="curve" smooth="yes"/>
      <point x="677" y="590" type="line" smooth="yes"/>
      <point x="676" y="590"/>
      <point x="656" y="588"/>
      <point x="656" y="579" type="curve" smooth="yes"/>
      <point x="656" y="383" type="line" smooth="yes"/>
      <point x="656" y="375"/>
      <point x="670" y="372"/>
      <point x="674" y="372" type="curve" smooth="yes"/>
      <point x="789" y="372" type="line" smooth="yes"/>
      <point x="827" y="372"/>
      <point x="838" y="375"/>
      <point x="845" y="381" type="curve" smooth="yes"/>
      <point x="853" y="390"/>
      <point x="857" y="418"/>
      <point x="859" y="431" type="curve" smooth="yes"/>
      <point x="859" y="436"/>
      <point x="863" y="451"/>
      <point x="879" y="451" type="curve" smooth="yes"/>
      <point x="893" y="451" type="line" smooth="yes"/>
      <point x="908" y="451"/>
      <point x="909" y="442"/>
      <point x="911" y="431" type="curve" smooth="yes"/>
      <point x="909" y="376"/>
      <point x="912" y="299"/>
      <point x="911" y="250" type="curve" smooth="yes"/>
      <point x="911" y="240"/>
      <point x="911" y="225"/>
      <point x="897" y="225" type="curve" smooth="yes"/>
      <point x="879" y="225" type="line" smooth="yes"/>
      <point x="863" y="225"/>
      <point x="859" y="239"/>
      <point x="859" y="248" type="curve" smooth="yes"/>
      <point x="854" y="299"/>
      <point x="846" y="304"/>
      <point x="798" y="304" type="curve" smooth="yes"/>
      <point x="665" y="304" type="line" smooth="yes"/>
      <point x="659" y="304"/>
      <point x="656" y="284"/>
      <point x="656" y="280" type="curve" smooth="yes"/>
      <point x="656" y="80" type="line" smooth="yes"/>
      <point x="656" y="74"/>
      <point x="665" y="64"/>
      <point x="673" y="64" type="curve" smooth="yes"/>
      <point x="814" y="64" type="line" smooth="yes"/>
      <point x="891" y="64"/>
      <point x="899" y="68"/>
      <point x="916" y="88" type="curve" smooth="yes"/>
      <point x="931" y="106"/>
      <point x="945" y="137"/>
      <point x="948" y="159" type="curve" smooth="yes"/>
      <point x="950" y="173"/>
      <point x="956" y="176"/>
      <point x="969" y="176" type="curve" smooth="yes"/>
      <point x="980" y="176" type="line" smooth="yes"/>
      <point x="996" y="176"/>
      <point x="998" y="166"/>
      <point x="998" y="150" type="curve" smooth="yes"/>
      <point x="997" y="111"/>
      <point x="989" y="58"/>
    </contour>
    <contour>
      <point x="534" y="504" type="line" smooth="yes"/>
      <point x="534" y="574"/>
      <point x="498" y="609"/>
      <point x="405" y="609" type="curve" smooth="yes"/>
      <point x="264" y="609"/>
      <point x="179" y="512"/>
      <point x="179" y="341" type="curve" smooth="yes"/>
      <point x="179" y="170"/>
      <point x="283" y="46"/>
      <point x="413" y="46" type="curve" smooth="yes"/>
      <point x="448" y="46"/>
      <point x="475" y="55"/>
      <point x="498" y="72" type="curve" smooth="yes"/>
      <point x="528" y="95"/>
      <point x="534" y="110"/>
      <point x="534" y="229" type="curve" smooth="yes"/>
    </contour>
  </outline>
</glyph>
<glyph name="oe" format="1">
  <advance width="775"/>
  <unicode hex="0153"/>
  <outline>
    <contour>
      <point x="433" y="46" type="curve"/>
      <point x="393" y="3"/>
      <point x="341" y="-17"/>
      <point x="278" y="-17" type="curve" smooth="yes"/>
      <point x="145" y="-17"/>
      <point x="42" y="77"/>
      <point x="42" y="205" type="curve" smooth="yes"/>
      <point x="42" y="329"/>
      <point x="146" y="431"/>
      <point x="276" y="431" type="curve" smooth="yes"/>
      <point x="335" y="431"/>
      <point x="387" y="410"/>
      <point x="423" y="368" type="curve" smooth="yes"/>
      <point x="423" y="367"/>
      <point x="424" y="368"/>
      <point x="426" y="371" type="curve" smooth="yes"/>
      <point x="468" y="413"/>
      <point x="513" y="431"/>
      <point x="571" y="431" type="curve" smooth="yes"/>
      <point x="647" y="431"/>
      <point x="697" y="399"/>
      <point x="724" y="332" type="curve" smooth="yes"/>
      <point x="732" y="312"/>
      <point x="736" y="305"/>
      <point x="752" y="291" type="curve"/>
      <point x="752" y="272" type="line" smooth="yes"/>
      <point x="752" y="254"/>
      <point x="734" y="252"/>
      <point x="729" y="252" type="curve" smooth="yes"/>
      <point x="494" y="252" type="line" smooth="yes"/>
      <point x="480" y="252"/>
      <point x="476" y="248"/>
      <point x="476" y="241" type="curve" smooth="yes"/>
      <point x="479" y="133"/>
      <point x="536" y="59"/>
      <point x="597" y="59" type="curve" smooth="yes"/>
      <point x="622" y="59"/>
      <point x="654" y="76"/>
      <point x="704" y="123" type="curve" smooth="yes"/>
      <point x="709" y="128"/>
      <point x="717" y="140"/>
      <point x="731" y="123" type="curve" smooth="yes"/>
      <point x="735" y="119"/>
      <point x="743" y="112"/>
      <point x="744" y="108" type="curve" smooth="yes"/>
      <point x="747" y="101"/>
      <point x="746" y="96"/>
      <point x="737" y="87" type="curve" smooth="yes"/>
      <point x="712" y="59"/>
      <point x="681" y="33"/>
      <point x="652" y="14" type="curve" smooth="yes"/>
      <point x="620" y="-6"/>
      <point x="586" y="-17"/>
      <point x="552" y="-17" type="curve" smooth="yes"/>
      <point x="505" y="-17"/>
      <point x="463" y="5"/>
    </contour>
    <contour>
      <point x="493" y="303" type="curve" smooth="yes"/>
      <point x="615" y="303" type="line" smooth="yes"/>
      <point x="617" y="303"/>
      <point x="625" y="304"/>
      <point x="625" y="305" type="curve" smooth="yes"/>
      <point x="620" y="354"/>
      <point x="590" y="383"/>
      <point x="556" y="383" type="curve" smooth="yes"/>
      <point x="522" y="383"/>
      <point x="496" y="361"/>
      <point x="484" y="312" type="curve" smooth="yes"/>
      <point x="483" y="306"/>
      <point x="483" y="303"/>
    </contour>
    <contour>
      <point x="258" y="377" type="curve" smooth="yes"/>
      <point x="201" y="377"/>
      <point x="150" y="320"/>
      <point x="150" y="233" type="curve" smooth="yes"/>
      <point x="150" y="125"/>
      <point x="220" y="40"/>
      <point x="287" y="40" type="curve" smooth="yes"/>
      <point x="341" y="40"/>
      <point x="380" y="85"/>
      <point x="380" y="182" type="curve" smooth="yes"/>
      <point x="380" y="304"/>
      <point x="324" y="377"/>
    </contour>
  </outline>
</glyph>
<glyph name="dotaccent" format="1">
  <advance width="349"/>
  <unicode hex="02D9"/>
  <outline>
    <contour>
      <point x="175" y="476" type="curve" smooth="yes"/>
      <point x="139" y="476"/>
      <point x="110" y="504"/>
      <point x="110" y="537" type="curve" smooth="yes"/>
      <point x="110" y="569"/>
      <point x="139" y="597"/>
      <point x="175" y="597" type="curve" smooth="yes"/>
      <point x="211" y="597"/>
      <point x="240" y="570"/>
      <point x="240" y="537" type="curve" smooth="yes"/>
      <point x="240" y="504"/>
      <point x="211" y="476"/>
    </contour>
  </outline>
</glyph>
<glyph name="hungarumlaut" format="1">
  <advance width="349"/>
  <unicode hex="02DD"/>
  <outline>
    <contour>
      <point x="226" y="480" type="line" smooth="yes"/>
      <point x="222" y="474"/>
      <point x="213" y="472"/>
      <point x="204" y="473" type="curve" smooth="yes"/>
      <point x="195" y="473"/>
      <point x="183" y="479"/>
      <point x="183" y="487" type="curve" smooth="yes"/>
      <point x="215" y="648" type="line" smooth="yes"/>
      <point x="219" y="657"/>
      <point x="225" y="662"/>
      <point x="235" y="662" type="curve" smooth="yes"/>
      <point x="322" y="662" type="line"/>
      <point x="340" y="657"/>
      <point x="336" y="645"/>
      <point x="334" y="639" type="curve" smooth="yes"/>
    </contour>
    <contour>
      <point x="72" y="479" type="line"/>
      <point x="62" y="472"/>
      <point x="31" y="474"/>
      <point x="31" y="487" type="curve" smooth="yes"/>
      <point x="63" y="646" type="line" smooth="yes"/>
      <point x="66" y="661"/>
      <point x="79" y="662"/>
      <point x="86" y="662" type="curve" smooth="yes"/>
      <point x="170" y="662" type="line" smooth="yes"/>
      <point x="180" y="659"/>
      <point x="192" y="652"/>
      <point x="182" y="638" type="curve" smooth="yes"/>
    </contour>
  </outline>
</glyph>
<glyph name="quoteright" format="1">
  <advance width="272"/>
  <unicode hex="2019"/>
  <outline>
    <contour>
      <point x="141" y="580" type="line"/>
      <point x="134" y="578"/>
      <point x="127" y="576"/>
      <point x="120" y="576" type="curve" smooth="yes"/>
      <point x="88" y="576"/>
      <point x="66" y="602"/>
      <point x="66" y="633" type="curve" smooth="yes"/>
      <point x="66" y="668"/>
      <point x="95" y="694"/>
      <point x="130" y="694" type="curve" smooth="yes"/>
      <point x="177" y="694"/>
      <point x="207" y="654"/>
      <point x="207" y="603" type="curve" smooth="yes"/>
      <point x="207" y="544"/>
      <point x="167" y="489"/>
      <point x="106" y="460" type="curve" smooth="yes"/>
      <point x="68" y="442"/>
      <point x="55" y="484"/>
      <point x="76" y="496" type="curve" smooth="yes"/>
      <point x="121" y="523"/>
      <point x="141" y="551"/>
      <point x="141" y="575" type="curve" smooth="yes"/>
      <point x="141" y="576"/>
      <point x="141" y="577"/>
      <point x="141" y="579" type="curve" smooth="yes"/>
    </contour>
  </outline>
</glyph>
<glyph name="perthousand" format="1">
  <advance width="1047"/>
  <unicode hex="2030"/>
  <outline>
    <contour>
      <point x="848" y="-34" type="curve" smooth="yes"/>
      <point x="768" y="-34"/>
      <point x="697" y="30"/>
      <point x="697" y="116" type="curve" smooth="yes"/>
      <point x="697" y="206"/>
      <point x="764" y="269"/>
      <point x="847" y="269" type="curve" smooth="yes"/>
      <point x="930" y="269"/>
      <point x="1001" y="209"/>
      <point x="999" y="119" type="curve" smooth="yes"/>
      <point x="997" y="30"/>
      <point x="932" y="-34"/>
    </contour>
    <contour>
      <point x="217" y="312" type="curve" smooth="yes"/>
      <point x="136" y="312"/>
      <point x="65" y="375"/>
      <point x="65" y="462" type="curve" smooth="yes"/>
      <point x="65" y="552"/>
      <point x="133" y="615"/>
      <point x="215" y="615" type="curve" smooth="yes"/>
      <point x="297" y="615"/>
      <point x="369" y="555"/>
      <point x="368" y="465" type="curve" smooth="yes"/>
      <point x="366" y="376"/>
      <point x="301" y="312"/>
    </contour>
    <contour>
      <point x="205" y="-45" type="line" smooth="yes"/>
      <point x="197" y="-59"/>
      <point x="182" y="-62"/>
      <point x="169" y="-59" type="curve" smooth="yes"/>
      <point x="144" y="-53"/>
      <point x="139" y="-41"/>
      <point x="148" y="-24" type="curve" smooth="yes"/>
      <point x="534" y="636" type="line" smooth="yes"/>
      <point x="544" y="648"/>
      <point x="560" y="649"/>
      <point x="569" y="646" type="curve" smooth="yes"/>
      <point x="581" y="643" type="line" smooth="yes"/>
      <point x="600" y="636"/>
      <point x="594" y="621"/>
      <point x="590" y="611" type="curve" smooth="yes"/>
    </contour>
    <contour>
      <point x="526" y="-34" type="curve" smooth="yes"/>
      <point x="445" y="-34"/>
      <point x="374" y="30"/>
      <point x="374" y="116" type="curve" smooth="yes"/>
      <point x="374" y="206"/>
      <point x="442" y="269"/>
      <point x="524" y="269" type="curve" smooth="yes"/>
      <point x="606" y="269"/>
      <point x="678" y="209"/>
      <point x="677" y="119" type="curve" smooth="yes"/>
      <point x="675" y="30"/>
      <point x="610" y="-34"/>
    </contour>
    <contour>
      <point x="845" y="218" type="curve" smooth="yes"/>
      <point x="804" y="218"/>
      <point x="775" y="185"/>
      <point x="775" y="118" type="curve" smooth="yes"/>
      <point x="775" y="51"/>
      <point x="806" y="19"/>
      <point x="848" y="19" type="curve" smooth="yes"/>
      <point x="892" y="19"/>
      <point x="923" y="51"/>
      <point x="923" y="119" type="curve" smooth="yes"/>
      <point x="923" y="186"/>
      <point x="892" y="218"/>
    </contour>
    <contour>
      <point x="214" y="563" type="curve" smooth="yes"/>
      <point x="173" y="563"/>
      <point x="143" y="530"/>
      <point x="143" y="464" type="curve" smooth="yes"/>
      <point x="143" y="396"/>
      <point x="173" y="365"/>
      <point x="217" y="365" type="curve" smooth="yes"/>
      <point x="261" y="365"/>
      <point x="290" y="397"/>
      <point x="290" y="465" type="curve" smooth="yes"/>
      <point x="290" y="533"/>
      <point x="260" y="563"/>
    </contour>
    <contour>
      <point x="523" y="218" type="curve" smooth="yes"/>
      <point x="482" y="218"/>
      <point x="453" y="185"/>
      <point x="453" y="118" type="curve" smooth="yes"/>
      <point x="453" y="50"/>
      <point x="483" y="19"/>
      <point x="526" y="19" type="curve" smooth="yes"/>
      <point x="570" y="19"/>
      <point x="600" y="51"/>
      <point x="600" y="119" type="curve" smooth="yes"/>
      <point x="600" y="187"/>
      <point x="569" y="218"/>
    </contour>
  </outline>
</glyph>
<glyph name="fraction" format="1">
  <advance width="242"/>
  <unicode hex="2044"/>
  <outline>
    <contour>
      <point x="1" y="-204" type="line"/>
      <point x="-46" y="-204" type="line" smooth="yes"/>
      <point x="-59" y="-204"/>
      <point x="-64" y="-200"/>
      <point x="-60" y="-188" type="curve" smooth="yes"/>
      <point x="285" y="691" type="line"/>
      <point x="337" y="691" type="line" smooth="yes"/>
      <point x="347" y="691"/>
      <point x="351" y="689"/>
      <point x="344" y="672" type="curve" smooth="yes"/>
    </contour>
  </outline>
</glyph>
<glyph name="four.lining" format="1">
  <advance width="489"/>
  <outline>
    <contour>
      <point x="461" y="171" type="curve" smooth="yes"/>
      <point x="459" y="170"/>
      <point x="456" y="170"/>
      <point x="454" y="170" type="curve" smooth="yes"/>
      <point x="434" y="170"/>
      <point x="415" y="170"/>
      <point x="394" y="170" type="curve"/>
      <point x="394" y="170"/>
      <point x="381" y="169"/>
      <point x="381" y="161" type="curve" smooth="yes"/>
      <point x="381" y="115"/>
      <point x="382" y="39"/>
      <point x="380" y="2" type="curve" smooth="yes"/>
      <point x="380" y="-13"/>
      <point x="373" y="-17"/>
      <point x="356" y="-18" type="curve" smooth="yes"/>
      <point x="350" y="-17"/>
      <point x="324" y="-17"/>
      <point x="309" y="-17" type="curve" smooth="yes"/>
      <point x="290" y="-18"/>
      <point x="279" y="-11"/>
      <point x="279" y="5" type="curve" smooth="yes"/>
      <point x="278" y="39"/>
      <point x="279" y="105"/>
      <point x="279" y="158" type="curve" smooth="yes"/>
      <point x="279" y="167"/>
      <point x="268" y="168"/>
      <point x="266" y="169" type="curve" smooth="yes"/>
      <point x="172" y="168"/>
      <point x="137" y="168"/>
      <point x="59" y="169" type="curve" smooth="yes"/>
      <point x="39" y="169"/>
      <point x="32" y="173"/>
      <point x="32" y="195" type="curve" smooth="yes"/>
      <point x="32" y="214" type="line"/>
      <point x="70" y="274"/>
      <point x="184" y="449"/>
      <point x="310" y="621" type="curve" smooth="yes"/>
      <point x="320" y="635"/>
      <point x="320" y="640"/>
      <point x="341" y="640" type="curve" smooth="yes"/>
      <point x="359" y="640" type="line" smooth="yes"/>
      <point x="377" y="640"/>
      <point x="378" y="627"/>
      <point x="378" y="614" type="curve" smooth="yes"/>
      <point x="378" y="600" type="line"/>
      <point x="378" y="273" type="line" smooth="yes"/>
      <point x="378" y="264"/>
      <point x="380" y="255"/>
      <point x="389" y="255" type="curve" smooth="yes"/>
      <point x="447" y="255" type="line" smooth="yes"/>
      <point x="462" y="255"/>
      <point x="468" y="256"/>
      <point x="474" y="236" type="curve" smooth="yes"/>
      <point x="475" y="220"/>
      <point x="475" y="203"/>
      <point x="474" y="184" type="curve" smooth="yes"/>
      <point x="472" y="175"/>
      <point x="467" y="172"/>
    </contour>
    <contour>
      <point x="273" y="471" type="curve" smooth="yes"/>
      <point x="215" y="392"/>
      <point x="153" y="297"/>
      <point x="135" y="264" type="curve" smooth="yes"/>
      <point x="132" y="259"/>
      <point x="127" y="251"/>
      <point x="136" y="251" type="curve" smooth="yes"/>
      <point x="181" y="251"/>
      <point x="216" y="251"/>
      <point x="268" y="251" type="curve" smooth="yes"/>
      <point x="271" y="252"/>
      <point x="279" y="254"/>
      <point x="279" y="260" type="curve" smooth="yes"/>
      <point x="279" y="322"/>
      <point x="280" y="403"/>
      <point x="280" y="468" type="curve" smooth="yes"/>
      <point x="280" y="474"/>
      <point x="277" y="476"/>
    </contour>
  </outline>
</glyph>
<glyph name="zero.lining" format="1">
  <advance width="489"/>
  <outline>
    <contour>
      <point x="245" y="-18" type="curve" smooth="yes"/>
      <point x="118" y="-18"/>
      <point x="29" y="136"/>
      <point x="29" y="311" type="curve" smooth="yes"/>
      <point x="29" y="486"/>
      <point x="118" y="640"/>
      <point x="245" y="640" type="curve" smooth="yes"/>
      <point x="372" y="640"/>
      <point x="461" y="486"/>
      <point x="461" y="311" type="curve" smooth="yes"/>
      <point x="461" y="136"/>
      <point x="372" y="-18"/>
    </contour>
    <contour>
      <point x="337" y="492" type="curve" smooth="yes"/>
      <point x="323" y="557"/>
      <point x="287" y="585"/>
      <point x="245" y="585" type="curve" smooth="yes"/>
      <point x="192" y="585"/>
      <point x="164" y="542"/>
      <point x="152" y="492" type="curve" smooth="yes"/>
      <point x="140" y="444"/>
      <point x="135" y="378"/>
      <point x="135" y="311" type="curve" smooth="yes"/>
      <point x="135" y="244"/>
      <point x="141" y="178"/>
      <point x="152" y="130" type="curve" smooth="yes"/>
      <point x="167" y="65"/>
      <point x="203" y="37"/>
      <point x="245" y="37" type="curve" smooth="yes"/>
      <point x="291" y="37"/>
      <point x="326" y="79"/>
      <point x="337" y="130" type="curve" smooth="yes"/>
      <point x="349" y="181"/>
      <point x="355" y="245"/>
      <point x="355" y="311" type="curve" smooth="yes"/>
      <point x="355" y="377"/>
      <point x="349" y="440"/>
    </contour>
  </outline>
</glyph>
